<?xml version="1.0" encoding="utf-8"?>
<!-- Generator: Adobe Illustrator 16.0.0, SVG Export Plug-In . SVG Version: 6.00 Build 0)  -->
<!DOCTYPE svg PUBLIC "-//W3C//DTD SVG 1.1//EN" "http://www.w3.org/Graphics/SVG/1.1/DTD/svg11.dtd">
<svg version="1.1" id="Layer_1" xmlns="http://www.w3.org/2000/svg" xmlns:xlink="http://www.w3.org/1999/xlink" x="0px" y="0px"
	 width="40px" height="40px" viewBox="30 14.735 40 40" enable-background="new 30 14.735 40 40" xml:space="preserve">
<path d="M63.688,40.239c-2.036-0.239-4.153-0.176-6.21,0.146c1.515-1.104,2.7-2.618,2.3-4.56c-0.201-0.969-0.812-1.87-1.745-2.234
	c-0.808-0.314-1.743-0.245-2.581-0.122c-0.215,0.031-0.431,0.07-0.646,0.115c0.919-0.854,1.691-1.855,2.208-3.006
	c0.351-0.782,0.862-2.051,0.426-2.896c-0.368-0.714-1.384-0.211-1.847,0.079c-1.209,0.755-2.218,1.853-3.162,2.906
	c-1.039,1.162-1.884,2.367-2.456,3.811c0.037-0.976,0.075-1.952,0.114-2.929c0.447-0.326,0.891-0.669,1.235-1.074
	c0.448-0.532-0.109-1.226-0.424-1.67c-0.276-0.394-1.046-1.493-1.502-0.62c-0.171,0.326-0.087,0.894-0.1,1.245
	c-0.023,0.589-0.046,1.176-0.07,1.765c-0.361,0.274-0.724,0.548-1.077,0.828c-1.214,0.971-2.401,1.992-3.529,3.073
	c-0.734-0.319-1.48-0.563-2.117-0.761c-1.37-0.427-2.773-0.706-4.075-1.333c-0.586-0.283-1.167-0.671-1.478-1.257
	c-0.282-0.532,0.049-1.257,0.301-1.728c0.945-1.767,5.732-6.148,7.373-3.023c0.55,1.048-0.636,2.454-1.214,3.207
	c-0.377,0.491,0.227,1.007,0.609,0.511c0.763-0.996,1.771-2.298,1.586-3.644c-0.162-1.176-1.223-1.987-2.368-2.054
	c-1.428-0.083-2.843,0.859-3.926,1.679c-1.199,0.907-2.391,2.051-3.016,3.441c-0.482,1.072-0.409,2.118,0.461,2.948
	c1.068,1.019,2.731,1.421,4.111,1.784c0.917,0.241,2.004,0.525,3.024,0.945c-0.754,0.762-1.478,1.552-2.158,2.377
	c-0.803,0.973-1.566,2.017-2.12,3.153c-0.354,0.726-0.703,1.688-0.273,2.454c0.399,0.711,1.418,0.706,2.112,0.634
	c1.097-0.113,2.18-0.579,3.134-1.107c1.781-0.989,3.846-2.787,3.344-5.057c-0.283-1.276-1.333-2.162-2.544-2.803
	c0.114-0.107,0.228-0.213,0.341-0.319c1.103-1.028,2.272-1.983,3.458-2.916c-0.071,1.782-0.142,3.562-0.197,5.345
	c-0.021,0.659-0.044,1.32-0.037,1.979c0.006,0.551,0.07,1.115,0.236,1.641c0.042,0.136,0.099,0.267,0.159,0.395
	c0.025,0.055,0.101,0.274,0.069,0.119c0.059,0.169,0.226,0.309,0.417,0.248l0,0c0.276-0.088,0.506-0.339,0.44-0.648
	c-0.013-0.062-0.032-0.121-0.053-0.183c-0.093-0.375-0.107-0.795-0.136-1.169c-0.088-1.148-0.033-2.311,0.174-3.444
	c0.011-0.06,0.024-0.118,0.036-0.178c0.46-0.083,1.056-0.463,1.294-0.58c0.423-0.205,0.84-0.434,1.247-0.683
	c1.111-0.418,2.297-0.753,3.482-0.783c0.55-0.014,1.094,0.063,1.585,0.324c0.692,0.368,1.046,1.381,1.08,2.109
	c0.099,2.137-2.568,3.52-4.192,4.249c-0.394,0.178-0.475,1.016,0.091,0.862c2.755-0.746,5.726-1.008,8.559-0.677
	C63.942,41.211,64.275,40.308,63.688,40.239z M46.95,38.293c1.079,2.225-2.109,4.094-3.73,4.766
	c-0.807,0.335-1.909,0.699-2.775,0.386c-0.853-0.308-0.213-1.545,0.046-2.054c0.993-1.955,2.564-3.677,4.165-5.229
	C45.641,36.67,46.492,37.346,46.95,38.293z M55.369,28.905c0.277-0.221,1.336-1.132,1.339-0.332c0.006,1.293-0.84,2.646-1.639,3.597
	c-0.675,0.805-1.512,1.476-2.401,2.04c-0.706,0.263-1.392,0.575-2.043,0.914C51.482,32.631,53.314,30.541,55.369,28.905z
	 M50.169,29.47c0.031,0.042,0.062,0.086,0.092,0.13c0.111,0.163,0.212,0.334,0.303,0.511c-0.143,0.127-0.288,0.251-0.435,0.374
	C50.143,30.145,50.156,29.807,50.169,29.47z"/>
</svg>
