<?xml version="1.0" encoding="utf-8"?>
<!-- Generator: Adobe Illustrator 16.0.0, SVG Export Plug-In . SVG Version: 6.00 Build 0)  -->
<!DOCTYPE svg PUBLIC "-//W3C//DTD SVG 1.1//EN" "http://www.w3.org/Graphics/SVG/1.1/DTD/svg11.dtd">
<svg version="1.1" id="Layer_1" xmlns="http://www.w3.org/2000/svg" xmlns:xlink="http://www.w3.org/1999/xlink" x="0px" y="0px"
	 width="100px" height="100px" viewBox="0 -15.265 100 100" enable-background="new 0 -15.265 100 100" xml:space="preserve">
<path d="M81.284,47.318c-4.652-0.547-9.492-0.402-14.192,0.333c3.46-2.523,6.171-5.983,5.255-10.422
	c-0.459-2.215-1.855-4.276-3.988-5.107c-1.846-0.72-3.984-0.562-5.898-0.28c-0.492,0.073-0.983,0.161-1.476,0.263
	c2.102-1.951,3.867-4.24,5.046-6.87c0.801-1.787,1.971-4.689,0.974-6.62c-0.842-1.63-3.162-0.482-4.221,0.18
	c-2.765,1.728-5.068,4.236-7.228,6.644c-2.377,2.653-4.307,5.41-5.614,8.71c0.083-2.23,0.172-4.462,0.26-6.694
	c1.02-0.747,2.036-1.529,2.823-2.456c1.023-1.214-0.249-2.801-0.968-3.817c-0.634-0.899-2.392-3.412-3.435-1.416
	c-0.391,0.746-0.2,2.044-0.229,2.847c-0.052,1.345-0.105,2.688-0.159,4.032c-0.825,0.628-1.656,1.251-2.461,1.893
	c-2.777,2.22-5.49,4.553-8.067,7.025c-1.678-0.729-3.383-1.288-4.838-1.741c-3.131-0.976-6.339-1.614-9.314-3.047
	c-1.339-0.646-2.666-1.532-3.377-2.872c-0.643-1.215,0.113-2.873,0.689-3.951c2.161-4.039,13.101-14.054,16.853-6.909
	c1.257,2.396-1.455,5.609-2.775,7.33c-0.862,1.124,0.52,2.302,1.391,1.167c1.745-2.275,4.048-5.254,3.625-8.328
	c-0.37-2.688-2.795-4.542-5.413-4.695c-3.263-0.191-6.497,1.963-8.973,3.839c-2.74,2.074-5.465,4.686-6.894,7.865
	c-1.102,2.449-0.935,4.841,1.054,6.738c2.441,2.329,6.242,3.248,9.397,4.078c2.094,0.551,4.581,1.199,6.912,2.16
	c-1.724,1.741-3.377,3.547-4.933,5.432c-1.835,2.225-3.581,4.609-4.846,7.209c-0.808,1.658-1.607,3.859-0.624,5.61
	c0.913,1.624,3.243,1.613,4.829,1.447c2.507-0.259,4.983-1.323,7.164-2.532c4.072-2.259,8.792-6.369,7.644-11.557
	c-0.646-2.917-3.046-4.943-5.814-6.406c0.26-0.245,0.521-0.488,0.779-0.73c2.521-2.352,5.195-4.534,7.903-6.667
	c-0.162,4.072-0.323,8.144-0.451,12.218c-0.047,1.507-0.102,3.017-0.083,4.525c0.015,1.257,0.161,2.548,0.54,3.749
	c0.096,0.311,0.227,0.609,0.362,0.9c0.058,0.126,0.231,0.627,0.157,0.274c0.133,0.387,0.517,0.705,0.955,0.566
	c0-0.001,0-0.001,0-0.001c0.63-0.2,1.157-0.775,1.005-1.481c-0.03-0.142-0.072-0.278-0.12-0.416
	c-0.212-0.858-0.245-1.819-0.311-2.673c-0.203-2.626-0.075-5.282,0.397-7.873c0.024-0.136,0.056-0.271,0.081-0.405
	c1.051-0.191,2.415-1.06,2.958-1.326c0.969-0.47,1.922-0.992,2.851-1.562c2.542-0.957,5.25-1.721,7.959-1.79
	c1.259-0.032,2.503,0.144,3.624,0.739c1.583,0.842,2.39,3.16,2.468,4.821c0.228,4.885-5.868,8.045-9.582,9.714
	c-0.897,0.405-1.083,2.32,0.208,1.97c6.296-1.705,13.088-2.305,19.564-1.546C81.868,49.542,82.63,47.476,81.284,47.318z
	 M43.029,42.872c2.465,5.084-4.821,9.357-8.527,10.894c-1.844,0.766-4.362,1.597-6.343,0.881c-1.948-0.703-0.486-3.532,0.105-4.694
	c2.269-4.468,5.862-8.403,9.519-11.95C40.036,39.161,41.98,40.706,43.029,42.872z M62.271,21.411
	c0.634-0.505,3.055-2.587,3.061-0.758c0.014,2.956-1.92,6.046-3.745,8.221c-1.543,1.839-3.457,3.374-5.49,4.661
	c-1.612,0.602-3.179,1.315-4.669,2.09C53.389,29.929,57.575,25.151,62.271,21.411z M50.386,22.701
	c0.071,0.099,0.142,0.198,0.21,0.297c0.255,0.374,0.485,0.764,0.692,1.167c-0.325,0.291-0.656,0.574-0.993,0.854
	C50.327,24.245,50.355,23.473,50.386,22.701z"/>
</svg>
