<?xml version="1.0" encoding="utf-8"?>
<!-- Generator: Adobe Illustrator 16.0.0, SVG Export Plug-In . SVG Version: 6.00 Build 0)  -->
<!DOCTYPE svg PUBLIC "-//W3C//DTD SVG 1.1//EN" "http://www.w3.org/Graphics/SVG/1.1/DTD/svg11.dtd">
<svg version="1.1" id="Layer_1" xmlns="http://www.w3.org/2000/svg" xmlns:xlink="http://www.w3.org/1999/xlink" x="0px" y="0px"
	 width="120px" height="40px" viewBox="15 5 120 40" enable-background="new 15 5 120 40" xml:space="preserve">
<g>
	<path d="M23,28.333V20h2.832c0.837,0,1.474,0.158,1.911,0.474c0.437,0.316,0.655,0.774,0.655,1.378
		c0,1.003-0.666,1.711-1.998,2.127c1.557,0.38,2.336,1.145,2.336,2.291c0,0.666-0.229,1.174-0.684,1.529
		c-0.457,0.355-1.111,0.533-1.962,0.533H23z M24.632,23.469h0.412c0.487,0,0.876-0.122,1.163-0.361
		c0.289-0.239,0.431-0.566,0.431-0.979c0-0.381-0.114-0.644-0.345-0.78c-0.231-0.138-0.667-0.206-1.31-0.206h-0.351V23.469z
		 M24.632,27.148h0.374c0.728,0,1.229-0.078,1.505-0.232c0.277-0.154,0.414-0.439,0.414-0.854c0-0.423-0.186-0.776-0.555-1.058
		c-0.369-0.282-0.837-0.422-1.399-0.422h-0.339V27.148z"/>
	<path d="M34.778,28.123c-0.791,0.235-1.542,0.351-2.25,0.351c-1.032,0-1.846-0.293-2.444-0.879
		c-0.596-0.585-0.894-1.386-0.894-2.398c0-0.958,0.272-1.728,0.818-2.311c0.546-0.584,1.269-0.875,2.165-0.875
		c0.904,0,1.565,0.285,1.981,0.856c0.417,0.569,0.624,1.473,0.624,2.708h-3.834c0.114,1.178,0.76,1.769,1.942,1.769
		c0.559,0,1.191-0.129,1.892-0.389L34.778,28.123L34.778,28.123z M30.922,24.632h2.217c0-1.054-0.339-1.582-1.019-1.582
		C31.43,23.051,31.031,23.579,30.922,24.632z"/>
	<path d="M35.868,28.333v-6.182h1.667v1.165c0.432-0.873,1.087-1.306,1.97-1.306c0.105,0,0.208,0.011,0.31,0.035v1.486
		c-0.236-0.086-0.457-0.131-0.658-0.131c-0.664,0-1.206,0.336-1.622,1.008v3.923h-1.667V28.333z"/>
	<path d="M40.425,28.333v-8.891h1.667v5.59H42.2l2.2-2.882h1.385l-2.031,2.646l2.669,3.537h-2.026l-2.195-3.092h-0.109v3.092H40.425
		L40.425,28.333z"/>
	<path d="M51.729,28.123c-0.792,0.235-1.543,0.351-2.252,0.351c-1.03,0-1.846-0.293-2.442-0.879
		c-0.597-0.585-0.895-1.386-0.895-2.398c0-0.958,0.272-1.728,0.819-2.311c0.546-0.584,1.267-0.875,2.166-0.875
		c0.904,0,1.564,0.285,1.981,0.856c0.417,0.569,0.625,1.473,0.625,2.708h-3.834c0.112,1.178,0.759,1.769,1.942,1.769
		c0.559,0,1.19-0.129,1.892-0.389L51.729,28.123L51.729,28.123z M47.872,24.632h2.217c0-1.054-0.338-1.582-1.019-1.582
		C48.38,23.051,47.98,23.579,47.872,24.632z"/>
	<path d="M52.836,28.333v-8.891h1.667v8.891H52.836L52.836,28.333z"/>
	<path d="M61.007,28.123c-0.792,0.235-1.544,0.351-2.252,0.351c-1.031,0-1.846-0.293-2.442-0.879
		c-0.596-0.585-0.895-1.386-0.895-2.398c0-0.958,0.272-1.728,0.818-2.311c0.546-0.584,1.268-0.875,2.166-0.875
		c0.904,0,1.566,0.285,1.983,0.856c0.416,0.569,0.623,1.473,0.623,2.708h-3.832c0.112,1.178,0.758,1.769,1.941,1.769
		c0.559,0,1.189-0.129,1.891-0.389L61.007,28.123L61.007,28.123z M57.15,24.632h2.219c0-1.054-0.339-1.582-1.019-1.582
		C57.659,23.051,57.259,23.579,57.15,24.632z"/>
	<path d="M61.979,30.556l1.401-2.223l-2.291-6.182h1.788l1.533,4.133l1.818-4.133h1.266l-3.817,8.406h-1.7L61.979,30.556
		L61.979,30.556z"/>
	<path d="M71.902,28.333V20h1.734v8.333H71.902z"/>
	<path d="M75.011,28.333v-6.182h1.666v1.165c0.546-0.873,1.248-1.306,2.107-1.306c0.553,0,0.988,0.174,1.306,0.522
		c0.319,0.351,0.477,0.825,0.477,1.431v4.368H78.9v-3.955c0-0.702-0.232-1.053-0.696-1.053c-0.527,0-1.04,0.374-1.527,1.12v3.89
		H75.011L75.011,28.333z"/>
	<path d="M81.866,28.333v-6.182h1.665v1.165c0.544-0.873,1.248-1.306,2.104-1.306c0.552,0,0.989,0.174,1.31,0.522
		c0.315,0.351,0.477,0.825,0.477,1.431v4.368h-1.666v-3.955c0-0.702-0.233-1.053-0.699-1.053c-0.529,0-1.037,0.374-1.525,1.12v3.89
		H81.866L81.866,28.333z"/>
	<path d="M91.424,28.474c-0.965,0-1.729-0.293-2.297-0.877c-0.572-0.581-0.854-1.367-0.854-2.355c0-0.998,0.285-1.786,0.855-2.364
		c0.576-0.578,1.35-0.868,2.335-0.868s1.767,0.289,2.339,0.868c0.572,0.579,0.859,1.361,0.859,2.354
		c0,1.012-0.287,1.806-0.862,2.379C93.229,28.186,92.433,28.474,91.424,28.474z M91.452,27.433c0.956,0,1.435-0.735,1.435-2.201
		c0-0.673-0.125-1.204-0.379-1.594c-0.254-0.39-0.602-0.587-1.045-0.587c-0.438,0-0.785,0.195-1.039,0.587
		c-0.252,0.39-0.379,0.924-0.379,1.604c0,0.672,0.127,1.206,0.378,1.598C90.672,27.234,91.016,27.433,91.452,27.433z"/>
	<path d="M96.927,28.333l-2.356-6.182h1.755l1.729,4.459l1.715-4.459h1.206l-2.382,6.182H96.927z"/>
	<path d="M104.613,27.667c-0.556,0.539-1.15,0.807-1.785,0.807c-0.542,0-0.979-0.166-1.319-0.496s-0.507-0.757-0.507-1.281
		c0-0.685,0.272-1.21,0.818-1.582c0.546-0.369,1.327-0.554,2.349-0.554h0.444v-0.564c0-0.642-0.366-0.961-1.1-0.961
		c-0.647,0-1.306,0.182-1.97,0.55v-1.148c0.753-0.285,1.5-0.427,2.239-0.427c1.62,0,2.427,0.643,2.427,1.93v2.736
		c0,0.485,0.158,0.726,0.467,0.726c0.057,0,0.129-0.005,0.22-0.021l0.04,0.934c-0.354,0.103-0.666,0.158-0.935,0.158
		c-0.685,0-1.122-0.268-1.318-0.807H104.613z M104.613,26.773v-1.256h-0.394c-1.079,0-1.618,0.336-1.618,1.013
		c0,0.229,0.079,0.421,0.234,0.577c0.156,0.157,0.349,0.235,0.578,0.235C103.804,27.343,104.204,27.153,104.613,26.773z"/>
	<path d="M110.802,28.297c-0.396,0.117-0.711,0.177-0.94,0.177c-1.442,0-2.168-0.676-2.168-2.026v-3.255h-0.69v-1.041h0.69V21.11
		l1.666-0.191v1.232h1.325v1.041h-1.325v3.034c0,0.761,0.31,1.136,0.931,1.136c0.141,0,0.312-0.025,0.512-0.077V28.297
		L110.802,28.297z"/>
	<path d="M111.55,21.108v-1.389h1.668v1.389H111.55z M111.55,28.333v-6.182h1.668v6.182H111.55z"/>
	<path d="M117.282,28.474c-0.964,0-1.731-0.293-2.301-0.877c-0.567-0.581-0.853-1.367-0.853-2.355c0-0.998,0.288-1.786,0.857-2.364
		c0.573-0.578,1.351-0.868,2.336-0.868c0.984,0,1.767,0.289,2.34,0.868c0.571,0.579,0.858,1.361,0.858,2.354
		c0,1.012-0.289,1.806-0.862,2.379C119.086,28.186,118.293,28.474,117.282,28.474z M117.312,27.433c0.956,0,1.437-0.735,1.437-2.201
		c0-0.673-0.127-1.204-0.381-1.594c-0.253-0.39-0.602-0.587-1.045-0.587c-0.438,0-0.783,0.195-1.04,0.587
		c-0.251,0.39-0.378,0.924-0.378,1.604c0,0.672,0.127,1.206,0.377,1.598C116.53,27.234,116.876,27.433,117.312,27.433z"/>
	<path d="M121.444,28.333v-6.182h1.666v1.165c0.543-0.873,1.245-1.306,2.103-1.306c0.555,0,0.989,0.174,1.31,0.522
		c0.315,0.349,0.478,0.827,0.478,1.433v4.368h-1.665v-3.957c0-0.702-0.234-1.053-0.7-1.053c-0.528,0-1.037,0.374-1.524,1.12v3.89
		H121.444L121.444,28.333z"/>
</g>
</svg>
