<?xml version="1.0" encoding="utf-8"?>
<!-- Generator: Adobe Illustrator 16.0.0, SVG Export Plug-In . SVG Version: 6.00 Build 0)  -->
<!DOCTYPE svg PUBLIC "-//W3C//DTD SVG 1.1//EN" "http://www.w3.org/Graphics/SVG/1.1/DTD/svg11.dtd">
<svg version="1.1" id="Layer_1" xmlns="http://www.w3.org/2000/svg" xmlns:xlink="http://www.w3.org/1999/xlink" x="0px" y="0px"
	 width="150px" height="50px" viewBox="-25 0 150 50" enable-background="new -25 0 150 50" xml:space="preserve">
<g>
	<path d="M-10,28.846v-9.615h3.267c0.966,0,1.701,0.183,2.205,0.546c0.504,0.364,0.756,0.894,0.756,1.591
		c0,1.157-0.768,1.974-2.305,2.455c1.796,0.438,2.695,1.32,2.695,2.644c0,0.768-0.264,1.354-0.789,1.764
		c-0.527,0.409-1.282,0.615-2.264,0.615H-10z M-8.116,23.233h0.474c0.562,0,1.011-0.14,1.342-0.416
		c0.332-0.276,0.496-0.654,0.496-1.13c0-0.44-0.131-0.742-0.398-0.9c-0.267-0.158-0.769-0.237-1.51-0.237h-0.404V23.233z
		 M-8.116,27.48h0.43c0.839,0,1.418-0.091,1.738-0.27c0.318-0.178,0.477-0.507,0.477-0.984c0-0.488-0.215-0.896-0.641-1.221
		c-0.425-0.325-0.964-0.487-1.614-0.487h-0.39V27.48z"/>
	<path d="M3.591,28.604c-0.913,0.27-1.78,0.404-2.598,0.404c-1.19,0-2.129-0.338-2.819-1.014c-0.688-0.675-1.032-1.598-1.032-2.768
		c0-1.104,0.314-1.993,0.944-2.666c0.63-0.674,1.463-1.009,2.498-1.009c1.043,0,1.805,0.328,2.286,0.987
		c0.48,0.657,0.72,1.7,0.72,3.125h-4.424c0.131,1.358,0.877,2.039,2.241,2.039c0.645,0,1.374-0.148,2.183-0.447L3.591,28.604
		L3.591,28.604z M-0.859,24.576H1.7c0-1.216-0.392-1.825-1.176-1.825C-0.273,22.751-0.733,23.36-0.859,24.576z"/>
	<path d="M4.848,28.846v-7.133h1.924v1.343c0.498-1.005,1.255-1.506,2.273-1.506c0.121,0,0.241,0.012,0.357,0.04v1.714
		c-0.273-0.099-0.527-0.15-0.759-0.15c-0.767,0-1.391,0.387-1.872,1.162v4.528H4.848V28.846z"/>
	<path d="M10.106,28.846V18.587h1.923v6.45h0.125l2.539-3.325h1.598l-2.344,3.053l3.08,4.08h-2.339l-2.533-3.567h-0.125v3.567
		H10.106z"/>
	<path d="M23.149,28.604c-0.914,0.27-1.781,0.404-2.598,0.404c-1.19,0-2.13-0.338-2.819-1.014c-0.688-0.675-1.032-1.598-1.032-2.768
		c0-1.104,0.314-1.993,0.945-2.666c0.63-0.674,1.462-1.009,2.498-1.009c1.043,0,1.805,0.328,2.286,0.987
		c0.481,0.657,0.721,1.7,0.721,3.125h-4.424c0.129,1.358,0.876,2.039,2.241,2.039c0.645,0,1.373-0.148,2.183-0.447L23.149,28.604
		L23.149,28.604z M18.698,24.576h2.559c0-1.216-0.391-1.825-1.175-1.825C19.285,22.751,18.823,23.36,18.698,24.576z"/>
	<path d="M24.427,28.846V18.587h1.922v10.258H24.427z"/>
	<path d="M33.854,28.604c-0.914,0.27-1.781,0.404-2.598,0.404c-1.19,0-2.13-0.338-2.818-1.014c-0.688-0.675-1.032-1.598-1.032-2.768
		c0-1.104,0.314-1.993,0.944-2.666c0.63-0.674,1.463-1.009,2.499-1.009c1.043,0,1.807,0.328,2.287,0.987
		c0.48,0.657,0.719,1.7,0.719,3.125h-4.422c0.129,1.358,0.875,2.039,2.24,2.039c0.645,0,1.373-0.148,2.182-0.447L33.854,28.604
		L33.854,28.604z M29.405,24.576h2.56c0-1.216-0.392-1.825-1.177-1.825C29.991,22.751,29.53,23.36,29.405,24.576z"/>
	<path d="M34.976,31.41l1.618-2.564l-2.644-7.132h2.064l1.768,4.769l2.098-4.769h1.461l-4.404,9.699h-1.962V31.41z"/>
	<path d="M46.426,28.846v-9.615h2.001v9.615H46.426z"/>
	<path d="M50.013,28.846v-7.133h1.923v1.343c0.63-1.005,1.439-1.506,2.431-1.506c0.638,0,1.14,0.201,1.507,0.603
		c0.368,0.404,0.551,0.952,0.551,1.65v5.041h-1.922V24.28c0-0.81-0.27-1.215-0.805-1.215c-0.609,0-1.199,0.431-1.762,1.293v4.488
		H50.013L50.013,28.846z"/>
	<path d="M57.922,28.846v-7.133h1.922v1.343c0.627-1.005,1.439-1.506,2.428-1.506c0.637,0,1.141,0.201,1.51,0.603
		c0.365,0.404,0.551,0.952,0.551,1.65v5.041H62.41V24.28c0-0.81-0.271-1.215-0.807-1.215c-0.61,0-1.197,0.431-1.76,1.293v4.488
		H57.922L57.922,28.846z"/>
	<path d="M68.951,29.008c-1.113,0-1.996-0.338-2.652-1.012c-0.659-0.671-0.984-1.578-0.984-2.717c0-1.152,0.33-2.061,0.988-2.728
		c0.664-0.667,1.559-1.001,2.693-1.001c1.139,0,2.039,0.333,2.701,1.001c0.66,0.667,0.99,1.571,0.99,2.716
		c0,1.168-0.33,2.084-0.995,2.747C71.033,28.676,70.116,29.008,68.951,29.008z M68.984,27.807c1.104,0,1.654-0.848,1.654-2.54
		c0-0.776-0.144-1.388-0.436-1.839c-0.293-0.45-0.693-0.677-1.207-0.677c-0.505,0-0.904,0.225-1.197,0.677
		c-0.292,0.45-0.438,1.066-0.438,1.851c0,0.776,0.146,1.391,0.435,1.844C68.084,27.578,68.48,27.807,68.984,27.807z"/>
	<path d="M75.301,28.846l-2.721-7.133h2.027l1.992,5.145l1.982-5.145h1.389l-2.748,7.133H75.301z"/>
	<path d="M84.17,28.078c-0.643,0.62-1.328,0.93-2.061,0.93c-0.623,0-1.131-0.191-1.521-0.572c-0.39-0.381-0.583-0.874-0.583-1.479
		c0-0.789,0.312-1.397,0.943-1.824c0.629-0.426,1.53-0.64,2.708-0.64h0.514v-0.65c0-0.741-0.422-1.11-1.27-1.11
		c-0.746,0-1.506,0.211-2.273,0.636v-1.325c0.872-0.329,1.733-0.493,2.586-0.493c1.867,0,2.799,0.742,2.799,2.227v3.157
		c0,0.56,0.181,0.838,0.539,0.838c0.065,0,0.15-0.008,0.253-0.025l0.046,1.078c-0.406,0.119-0.768,0.182-1.078,0.182
		c-0.789,0-1.295-0.31-1.52-0.93H84.17z M84.17,27.046v-1.449h-0.455c-1.244,0-1.865,0.39-1.865,1.168
		c0,0.265,0.09,0.486,0.27,0.666c0.18,0.182,0.402,0.271,0.668,0.271C83.234,27.702,83.697,27.484,84.17,27.046z"/>
	<path d="M91.311,28.805c-0.459,0.135-0.821,0.203-1.086,0.203c-1.665,0-2.5-0.779-2.5-2.338v-3.755h-0.799v-1.201h0.799v-1.202
		l1.922-0.22v1.422h1.528v1.201h-1.528v3.5c0,0.877,0.356,1.312,1.074,1.312c0.161,0,0.359-0.03,0.59-0.091V28.805L91.311,28.805z"
		/>
	<path d="M92.175,20.51v-1.603h1.923v1.603H92.175z M92.175,28.846v-7.133h1.923v7.133H92.175z"/>
	<path d="M98.787,29.008c-1.11,0-1.996-0.338-2.652-1.012c-0.656-0.671-0.984-1.578-0.984-2.717c0-1.152,0.33-2.061,0.988-2.728
		c0.661-0.667,1.559-1.001,2.695-1.001s2.037,0.333,2.699,1.001c0.66,0.667,0.99,1.571,0.99,2.716c0,1.168-0.333,2.084-0.994,2.747
		C100.869,28.676,99.955,29.008,98.787,29.008z M98.821,27.807c1.105,0,1.657-0.848,1.657-2.54c0-0.776-0.146-1.388-0.439-1.839
		c-0.291-0.45-0.693-0.677-1.205-0.677c-0.506,0-0.904,0.225-1.198,0.677c-0.292,0.45-0.438,1.066-0.438,1.851
		c0,0.776,0.146,1.391,0.435,1.844C97.923,27.578,98.318,27.807,98.821,27.807z"/>
	<path d="M103.59,28.846v-7.133h1.922v1.343c0.627-1.005,1.437-1.506,2.428-1.506c0.638,0,1.141,0.201,1.509,0.603
		c0.366,0.402,0.552,0.954,0.552,1.652v5.041h-1.923V24.28c0-0.81-0.269-1.215-0.806-1.215c-0.609,0-1.197,0.431-1.76,1.293v4.488
		H103.59L103.59,28.846z"/>
</g>
</svg>
