<?xml version="1.0" encoding="utf-8"?>
<!-- Generator: Adobe Illustrator 16.0.0, SVG Export Plug-In . SVG Version: 6.00 Build 0)  -->
<!DOCTYPE svg PUBLIC "-//W3C//DTD SVG 1.1//EN" "http://www.w3.org/Graphics/SVG/1.1/DTD/svg11.dtd">
<svg version="1.1" id="Layer_1" xmlns="http://www.w3.org/2000/svg" xmlns:xlink="http://www.w3.org/1999/xlink" x="0px" y="0px"
	 width="150px" height="50px" viewBox="-25 0 150 50" enable-background="new -25 0 150 50" xml:space="preserve">
<g>
	<path d="M19.875,20.753c-2.357,0-3.536,1.685-3.536,4.509c0,2.938,0.973,4.752,3.573,4.696c0.524,0,1.011-0.058,1.366-0.168
		c0.337-0.112,0.393-0.263,0.393-0.618v-1.496l1.909,0.131v3.236c-1.029,0.543-2.507,0.768-3.705,0.768
		c-3.798,0-5.875-2.133-5.875-6.397c0-4.884,2.993-6.511,5.875-6.511c1.104,0,2.395,0.244,3.517,0.767v3.181l-1.909,0.131v-1.459
		c0-0.355-0.056-0.506-0.393-0.617C20.735,20.791,20.249,20.753,19.875,20.753z"/>
	<path d="M28.978,21.876c1.384,0,4.172,0.431,4.172,4.733c0,3.592-2.002,5.238-4.472,5.238c-2.507,0-4.153-1.608-4.153-4.996
		C24.524,22.961,27.05,21.876,28.978,21.876z M30.867,26.908c0-2.096-0.505-3.387-2.002-3.387c-1.478,0-2.076,1.272-2.076,3.069
		c0,1.739,0.243,3.61,2.039,3.61C30.287,30.201,30.867,28.854,30.867,26.908z"/>
	<path d="M36.936,30.016l1.067,0.055v1.496H33.55v-1.42l0.617-0.058c0.337-0.037,0.543-0.149,0.543-0.599v-9.225
		c0-0.336-0.188-0.43-0.468-0.449l-0.655-0.037v-1.553h3.349V30.016z"/>
	<path d="M42.078,30.016l1.066,0.055v1.496h-4.453v-1.42l0.617-0.058c0.337-0.037,0.542-0.149,0.542-0.599v-9.225
		c0-0.336-0.187-0.43-0.468-0.449l-0.654-0.037v-1.553h3.349L42.078,30.016L42.078,30.016z"/>
	<path d="M47.238,30.016l1.066,0.055v1.496h-4.453v-1.42l0.618-0.058c0.337-0.037,0.542-0.149,0.542-0.599v-5.201
		c0-0.412-0.112-0.542-0.468-0.542l-0.655-0.038v-1.553h3.349L47.238,30.016L47.238,30.016z M45.928,18.152
		c0.823,0,1.422,0.617,1.422,1.402c0,0.786-0.599,1.366-1.44,1.366c-0.861,0-1.422-0.58-1.422-1.366
		C44.487,18.77,45.049,18.152,45.928,18.152z"/>
	<path d="M52.682,23.41c-0.805,0-1.402,0.375-1.402,1.123c0,0.861,0.897,1.123,1.777,1.365c1.459,0.412,3.067,0.879,3.067,2.918
		c0,1.947-1.608,2.994-3.61,2.994c-1.179,0-2.657-0.188-3.443-0.58V28.63l1.684-0.132v0.898c0,0.354,0.095,0.504,0.431,0.637
		c0.354,0.13,0.785,0.188,1.234,0.188c0.936,0,1.479-0.354,1.479-1.143c0-0.896-0.822-1.064-1.834-1.327
		c-1.385-0.354-2.898-0.824-2.898-2.899c0-1.947,1.646-2.976,3.609-2.976c1.272,0,2.377,0.394,3.105,0.748v2.245L54.197,25v-0.786
		c0-0.354-0.094-0.505-0.432-0.636C53.411,23.447,53.131,23.41,52.682,23.41z"/>
	<path d="M60.152,20.173v1.983h2.488l-0.188,1.572H60.15v4.92c0,1.142,0.449,1.478,1.217,1.478c0.506,0,0.973-0.205,1.271-0.394
		l0.562,1.44c-0.562,0.394-1.497,0.654-2.377,0.654c-2.918,0-2.899-1.796-2.899-3.104v-4.996h-1.327l0.188-1.367
		c1.311-0.111,1.758-1.123,2.15-2.188L60.152,20.173L60.152,20.173z"/>
	<path d="M67.105,30.016l1.064,0.055v1.496h-4.453v-1.42l0.617-0.058c0.337-0.037,0.543-0.149,0.543-0.599v-5.201
		c0-0.412-0.111-0.542-0.468-0.542l-0.654-0.038v-1.553h3.351V30.016z M65.796,18.152c0.822,0,1.421,0.617,1.421,1.402
		c0,0.786-0.599,1.366-1.439,1.366c-0.859,0-1.422-0.58-1.422-1.366C64.354,18.77,64.916,18.152,65.796,18.152z"/>
	<path d="M78.132,22.156v1.459l-0.58,0.037c-0.243,0.02-0.394,0.094-0.505,0.449l-2.414,7.465h-2.861l-2.619-7.445
		c-0.111-0.337-0.207-0.449-0.543-0.469l-0.543-0.037v-1.459h4.396v1.496l-1.141,0.057l1.927,6.155h0.037l1.871-6.155l-0.974-0.057
		v-1.496H78.132z"/>
	<path d="M85.963,24.477c0,2.881-3.125,3.369-5.332,3.385c0.074,1.217,0.711,2.209,2.301,2.209c1.104,0,1.909-0.506,2.357-0.823
		L86,30.764c-0.299,0.262-1.533,1.047-3.293,1.047c-3.18,0-4.415-1.944-4.415-4.731c0-2.769,1.554-5.201,4.621-5.201
		C84.747,21.876,85.963,22.811,85.963,24.477z M82.782,23.466c-1.497,0-2.171,1.44-2.228,2.825c1.385-0.02,3.35-0.337,3.35-1.777
		C83.904,23.82,83.455,23.466,82.782,23.466z"/>
</g>
</svg>
