<?xml version="1.0" encoding="utf-8"?>
<!-- Generator: Adobe Illustrator 16.0.0, SVG Export Plug-In . SVG Version: 6.00 Build 0)  -->
<!DOCTYPE svg PUBLIC "-//W3C//DTD SVG 1.1//EN" "http://www.w3.org/Graphics/SVG/1.1/DTD/svg11.dtd">
<svg version="1.1" id="Layer_1" xmlns="http://www.w3.org/2000/svg" xmlns:xlink="http://www.w3.org/1999/xlink" x="0px" y="0px"
	 width="120px" height="40px" viewBox="15 5 120 40" enable-background="new 15 5 120 40" xml:space="preserve">
<g>
	<path d="M49.896,21.461c-1.965,0-2.947,1.404-2.947,3.758c0,2.448,0.811,3.959,2.978,3.913c0.436,0,0.842-0.048,1.138-0.14
		c0.281-0.094,0.328-0.22,0.328-0.516v-1.247l1.591,0.109v2.697c-0.858,0.452-2.089,0.64-3.087,0.64
		c-3.165,0-4.896-1.777-4.896-5.331c0-4.07,2.494-5.426,4.896-5.426c0.92,0,1.996,0.204,2.931,0.639v2.651l-1.591,0.109v-1.216
		c0-0.296-0.047-0.422-0.328-0.515C50.612,21.493,50.208,21.461,49.896,21.461z"/>
	<path d="M57.481,22.396c1.153,0,3.477,0.36,3.477,3.944c0,2.993-1.668,4.365-3.726,4.365c-2.089,0-3.461-1.34-3.461-4.163
		C53.77,23.301,55.875,22.396,57.481,22.396z M59.056,26.59c0-1.746-0.421-2.822-1.668-2.822c-1.231,0-1.73,1.06-1.73,2.557
		c0,1.449,0.203,3.009,1.699,3.009C58.573,29.334,59.056,28.211,59.056,26.59z"/>
	<path d="M64.113,29.18l0.889,0.046v1.246h-3.711v-1.183l0.514-0.049c0.281-0.03,0.453-0.124,0.453-0.498v-7.688
		c0-0.28-0.157-0.359-0.39-0.375l-0.546-0.031v-1.294h2.791V29.18z"/>
	<path d="M68.398,29.18l0.888,0.046v1.246h-3.711v-1.183l0.515-0.049c0.281-0.03,0.452-0.124,0.452-0.498v-7.688
		c0-0.28-0.156-0.359-0.391-0.375l-0.545-0.031v-1.294h2.791L68.398,29.18L68.398,29.18z"/>
	<path d="M72.699,29.18l0.888,0.046v1.246h-3.711v-1.183l0.515-0.049c0.281-0.03,0.452-0.124,0.452-0.498v-4.334
		c0-0.344-0.094-0.452-0.39-0.452l-0.546-0.032V22.63h2.791L72.699,29.18L72.699,29.18z M71.607,19.293
		c0.685,0,1.185,0.515,1.185,1.169s-0.5,1.138-1.2,1.138c-0.718,0-1.186-0.483-1.186-1.138
		C70.406,19.809,70.874,19.293,71.607,19.293z"/>
	<path d="M77.234,23.675c-0.67,0-1.168,0.312-1.168,0.936c0,0.718,0.748,0.936,1.48,1.138c1.216,0.343,2.557,0.732,2.557,2.432
		c0,1.622-1.341,2.495-3.009,2.495c-0.982,0-2.213-0.156-2.87-0.483v-2.167l1.404-0.11v0.749c0,0.294,0.079,0.42,0.359,0.53
		c0.295,0.109,0.654,0.156,1.028,0.156c0.779,0,1.232-0.295,1.232-0.952c0-0.747-0.685-0.887-1.528-1.105
		c-1.154-0.296-2.415-0.688-2.415-2.416c0-1.623,1.371-2.48,3.007-2.48c1.06,0,1.981,0.329,2.588,0.624v1.871L78.498,25v-0.655
		c0-0.294-0.078-0.42-0.36-0.53C77.843,23.706,77.609,23.675,77.234,23.675z"/>
	<path d="M83.46,20.978v1.653h2.074l-0.157,1.31h-1.918v4.1c0,0.952,0.374,1.231,1.014,1.231c0.422,0,0.811-0.171,1.06-0.328
		l0.468,1.2c-0.468,0.328-1.247,0.545-1.979,0.545c-2.434,0-2.417-1.497-2.417-2.586v-4.164h-1.105l0.156-1.14
		c1.092-0.093,1.465-0.936,1.792-1.824L83.46,20.978L83.46,20.978z"/>
	<path d="M89.255,29.18l0.886,0.046v1.246h-3.712v-1.183l0.516-0.049c0.28-0.03,0.451-0.124,0.451-0.498v-4.334
		c0-0.344-0.091-0.452-0.389-0.452l-0.545-0.032V22.63h2.793V29.18z M88.163,19.293c0.686,0,1.185,0.515,1.185,1.169
		s-0.499,1.138-1.2,1.138c-0.714,0-1.185-0.483-1.185-1.138C86.961,19.809,87.43,19.293,88.163,19.293z"/>
	<path d="M98.443,22.63v1.216l-0.483,0.031c-0.203,0.016-0.328,0.078-0.421,0.375l-2.012,6.22h-2.385l-2.183-6.204
		c-0.093-0.281-0.172-0.375-0.452-0.391l-0.452-0.031V22.63h3.663v1.247l-0.95,0.047l1.605,5.13h0.032l1.559-5.13l-0.812-0.047
		V22.63H98.443z"/>
	<path d="M104.969,24.564c0,2.4-2.604,2.807-4.443,2.82c0.062,1.015,0.593,1.841,1.918,1.841c0.919,0,1.591-0.422,1.964-0.686
		L105,29.803c-0.249,0.219-1.277,0.873-2.744,0.873c-2.649,0-3.68-1.62-3.68-3.942c0-2.307,1.295-4.334,3.852-4.334
		C103.957,22.396,104.969,23.176,104.969,24.564z M102.318,23.722c-1.247,0-1.809,1.2-1.856,2.354
		c1.154-0.017,2.792-0.282,2.792-1.48C103.254,24.017,102.879,23.722,102.318,23.722z"/>
</g>
</svg>
