<?xml version="1.0" encoding="utf-8"?>
<!-- Generator: Adobe Illustrator 16.0.0, SVG Export Plug-In . SVG Version: 6.00 Build 0)  -->
<!DOCTYPE svg PUBLIC "-//W3C//DTD SVG 1.1//EN" "http://www.w3.org/Graphics/SVG/1.1/DTD/svg11.dtd">
<svg version="1.1" id="Layer_1" xmlns="http://www.w3.org/2000/svg" xmlns:xlink="http://www.w3.org/1999/xlink" x="0px" y="0px"
	 width="100px" height="100px" viewBox="0 0 100 100" enable-background="new 0 0 100 100" xml:space="preserve">
<path fill="#486AB2" d="M71.001,27.064H28.999c-3.866,0-6.999,3.134-6.999,7v28.929c0,3.864,3.133,6.998,6.999,6.998h4.739v10.944
	l10.944-10.944h26.319c3.865,0,6.999-3.134,6.999-6.998V34.064C78,30.198,74.866,27.064,71.001,27.064z M66.263,53.563
	c0,2.266-1.838,4.103-4.104,4.103H41.136v5.408l-7.397-7.399l7.397-7.396v5.407h19.282c0.824,0,1.492-0.669,1.492-1.492v-2.295
	l4.353-4.353V53.563L66.263,53.563z M58.863,48.777V43.37H39.583c-0.824,0-1.492,0.668-1.492,1.492v2.295l-4.353,4.354v-8.016
	c0-2.267,1.837-4.104,4.104-4.104h21.021v-5.407l7.399,7.398L58.863,48.777z"/>
</svg>
