<?xml version="1.0" encoding="utf-8"?>
<!-- Generator: Adobe Illustrator 16.0.0, SVG Export Plug-In . SVG Version: 6.00 Build 0)  -->
<!DOCTYPE svg PUBLIC "-//W3C//DTD SVG 1.1//EN" "http://www.w3.org/Graphics/SVG/1.1/DTD/svg11.dtd">
<svg version="1.1" id="Layer_1" xmlns="http://www.w3.org/2000/svg" xmlns:xlink="http://www.w3.org/1999/xlink" x="0px" y="0px"
	 width="40px" height="40px" viewBox="30 30 40 40" enable-background="new 30 30 40 40" xml:space="preserve">
<path fill="#486AB2" d="M59.001,40.456H41c-1.656,0-3,1.343-3,3v12.398c0,1.657,1.343,2.999,3,2.999h2.031v4.691l4.69-4.691h11.28
	c1.655,0,2.999-1.342,2.999-2.999V43.456C62,41.799,60.656,40.456,59.001,40.456z M56.97,51.813c0,0.97-0.787,1.758-1.759,1.758
	h-9.01v2.317l-3.17-3.171l3.17-3.169v2.318h8.264c0.354,0,0.64-0.287,0.64-0.641v-0.982l1.865-1.866V51.813L56.97,51.813z
	 M53.799,49.762v-2.318h-8.263c-0.354,0-0.64,0.286-0.64,0.64v0.983l-1.865,1.866v-3.435c0-0.972,0.787-1.76,1.759-1.76h9.009V43.42
	l3.171,3.171L53.799,49.762z"/>
</svg>
