<?xml version="1.0" encoding="utf-8"?>
<!-- Generator: Adobe Illustrator 16.0.0, SVG Export Plug-In . SVG Version: 6.00 Build 0)  -->
<!DOCTYPE svg PUBLIC "-//W3C//DTD SVG 1.1//EN" "http://www.w3.org/Graphics/SVG/1.1/DTD/svg11.dtd">
<svg version="1.1" id="Layer_1" xmlns="http://www.w3.org/2000/svg" xmlns:xlink="http://www.w3.org/1999/xlink" x="0px" y="0px"
	 width="120px" height="40px" viewBox="-10 5 120 40" enable-background="new -10 5 120 40" xml:space="preserve">
<g>
	<path d="M29.088,30.946l0.224-9.982l-2.634,9.982H24.63l-2.634-9.982l0.224,9.982H20V18.795h3.305l2.375,9.02l2.341-9.02h3.287
		v12.151H29.088z"/>
	<path d="M40.795,28.537c-0.344,0.878-1.463,2.668-4.028,2.668c-0.361,0-1.102-0.017-1.945-0.396
		c-0.895-0.396-2.53-1.601-2.53-4.199c0-0.93,0.258-1.618,0.379-1.928c0.361-0.86,1.462-2.599,4.027-2.599
		c0.327,0,1.084,0.034,1.894,0.396c0.929,0.396,2.53,1.55,2.547,4.131C41.14,26.919,41.122,27.729,40.795,28.537z M36.665,23.941
		c-0.189,0-0.706,0.035-1.17,0.327c-0.448,0.293-1.05,0.999-1.05,2.289c0,0.413,0.034,0.775,0.172,1.171
		c0.138,0.413,0.74,1.583,2.151,1.583c1.566,0,2.272-1.377,2.221-2.737C38.953,25.232,38.179,23.941,36.665,23.941z"/>
	<path d="M50.112,28.537c-0.344,0.878-1.463,2.668-4.027,2.668c-0.362,0-1.102-0.017-1.945-0.396
		c-0.895-0.396-2.53-1.601-2.53-4.199c0-0.93,0.258-1.618,0.378-1.928c0.361-0.86,1.463-2.599,4.027-2.599
		c0.327,0,1.084,0.034,1.894,0.396c0.929,0.396,2.529,1.55,2.547,4.131C50.456,26.919,50.438,27.729,50.112,28.537z M45.981,23.941
		c-0.189,0-0.706,0.035-1.17,0.327c-0.448,0.293-1.05,0.999-1.05,2.289c0,0.413,0.034,0.775,0.172,1.171
		c0.138,0.413,0.74,1.583,2.152,1.583c1.566,0,2.271-1.377,2.22-2.737C48.27,25.232,47.496,23.941,45.981,23.941z"/>
	<path d="M57.26,30.946l-2.599-3.855l-1.205,1.188v2.668h-2.048V18.795h2.048v6.833l3.356-3.287h2.633l-3.287,3.287l3.615,5.318
		H57.26z"/>
	<path d="M60.147,20.998v-2.082h2.048v2.082H60.147z M60.147,30.946v-8.605h2.048v8.605H60.147z"/>
	<path d="M71.022,29.914c-0.481,0.447-1.636,1.291-3.408,1.291c-0.551,0-1.91-0.069-3.08-1.153c-0.981-0.929-1.343-2.117-1.343-3.46
		c0-0.723,0.103-1.411,0.378-2.065c0.379-0.86,1.446-2.443,3.941-2.443c1.928,0,2.943,0.998,3.391,1.652
		c0.396,0.603,0.792,1.652,0.845,3.321h-6.369c0.034,0.259,0.12,0.792,0.551,1.309c0.292,0.361,0.809,0.826,1.876,0.826
		s1.687-0.499,1.962-0.792c0.069-0.068,0.173-0.207,0.293-0.396l1.756,1.016C71.676,29.208,71.436,29.535,71.022,29.914z
		 M69.301,24.837c-0.189-0.413-0.636-1.102-1.756-1.102c-0.446,0-0.688,0.086-0.86,0.155c-0.963,0.396-1.188,1.359-1.239,1.651
		h4.028C69.474,25.542,69.421,25.13,69.301,24.837z"/>
	<path d="M79.707,29.432c-0.413,0.792-1.48,1.773-3.58,1.773c-1.617,0-2.771-0.551-3.305-0.878
		c-0.292-0.189-0.567-0.413-0.826-0.672l1.55-1.256c0.068,0.086,0.172,0.241,0.396,0.431c0.74,0.636,1.842,0.671,2.082,0.671
		c0.517,0,1.119-0.12,1.464-0.517c0.137-0.138,0.224-0.327,0.224-0.499c0-0.068-0.018-0.207-0.138-0.361
		c-0.224-0.31-0.499-0.327-1.137-0.465c-0.567-0.12-1.135-0.189-1.687-0.326c-0.379-0.104-2.375-0.586-2.375-2.444
		c0-0.654,0.275-1.136,0.396-1.326c0.43-0.671,1.445-1.479,3.305-1.479c0.671,0,2.409,0.103,3.7,1.601l-1.464,1.359
		c-0.171-0.361-0.396-0.567-0.532-0.688c-0.534-0.464-1.102-0.619-1.808-0.619c-0.086,0-0.671,0-1.05,0.258
		c-0.31,0.207-0.38,0.482-0.38,0.637c0.018,0.293,0.224,0.5,0.276,0.534c0.224,0.171,0.792,0.31,1.48,0.43
		c0.465,0.086,0.929,0.155,1.394,0.259s0.98,0.257,1.36,0.533C79.363,26.609,80,27.212,80,28.262
		C80,28.675,79.896,29.07,79.707,29.432z"/>
</g>
</svg>
