<?xml version="1.0" encoding="utf-8"?>
<!-- Generator: Adobe Illustrator 16.0.0, SVG Export Plug-In . SVG Version: 6.00 Build 0)  -->
<!DOCTYPE svg PUBLIC "-//W3C//DTD SVG 1.1//EN" "http://www.w3.org/Graphics/SVG/1.1/DTD/svg11.dtd">
<svg version="1.1" id="Layer_1" xmlns="http://www.w3.org/2000/svg" xmlns:xlink="http://www.w3.org/1999/xlink" x="0px" y="0px"
	 width="150px" height="50px" viewBox="-25 0 150 50" enable-background="new -25 0 150 50" xml:space="preserve">
<g>
	<path d="M24.906,32.136l0.269-11.979l-3.16,11.979h-2.458l-3.16-11.979l0.269,11.979H14V17.554h3.966l2.85,10.823l2.809-10.823
		h3.945v14.582H24.906z"/>
	<path d="M38.954,29.244c-0.413,1.054-1.755,3.202-4.833,3.202c-0.434,0-1.322-0.021-2.334-0.476
		c-1.074-0.475-3.036-1.921-3.036-5.039c0-1.116,0.31-1.942,0.455-2.313c0.434-1.033,1.755-3.119,4.833-3.119
		c0.393,0,1.301,0.041,2.272,0.475c1.115,0.476,3.036,1.859,3.057,4.958C39.367,27.303,39.347,28.273,38.954,29.244z M33.997,23.729
		c-0.227,0-0.847,0.042-1.404,0.393c-0.537,0.352-1.26,1.198-1.26,2.747c0,0.496,0.042,0.93,0.207,1.404
		c0.165,0.496,0.888,1.9,2.582,1.9c1.879,0,2.727-1.652,2.665-3.284C36.744,25.279,35.815,23.729,33.997,23.729z"/>
	<path d="M50.134,29.244c-0.413,1.054-1.755,3.202-4.833,3.202c-0.434,0-1.322-0.021-2.334-0.476
		c-1.074-0.475-3.036-1.921-3.036-5.039c0-1.116,0.31-1.942,0.454-2.313c0.434-1.033,1.756-3.119,4.833-3.119
		c0.393,0,1.301,0.041,2.272,0.475c1.115,0.476,3.036,1.859,3.056,4.958C50.547,27.303,50.526,28.273,50.134,29.244z M45.177,23.729
		c-0.227,0-0.847,0.042-1.405,0.393c-0.537,0.352-1.26,1.198-1.26,2.747c0,0.496,0.042,0.93,0.207,1.404
		c0.166,0.496,0.888,1.9,2.582,1.9c1.879,0,2.726-1.652,2.664-3.284C47.924,25.279,46.995,23.729,45.177,23.729z"/>
	<path d="M58.712,32.136l-3.119-4.626l-1.445,1.425v3.201h-2.458V17.554h2.458v8.2l4.027-3.945h3.16l-3.945,3.945l4.338,6.382
		H58.712z"/>
	<path d="M62.177,20.197v-2.499h2.458v2.499H62.177z M62.177,32.136V21.809h2.458v10.327H62.177z"/>
	<path d="M75.227,30.896c-0.578,0.537-1.962,1.55-4.09,1.55c-0.66,0-2.292-0.083-3.696-1.384c-1.178-1.115-1.611-2.541-1.611-4.152
		c0-0.867,0.124-1.693,0.454-2.479c0.454-1.032,1.735-2.933,4.729-2.933c2.313,0,3.532,1.198,4.069,1.982
		c0.476,0.724,0.95,1.983,1.013,3.986h-7.643c0.041,0.311,0.145,0.95,0.661,1.57c0.351,0.434,0.971,0.991,2.251,0.991
		s2.024-0.599,2.354-0.95c0.083-0.082,0.207-0.248,0.352-0.475l2.106,1.219C76.012,30.05,75.723,30.442,75.227,30.896z
		 M73.161,24.804c-0.228-0.496-0.764-1.322-2.106-1.322c-0.537,0-0.826,0.104-1.033,0.187c-1.156,0.475-1.425,1.632-1.487,1.982
		h4.834C73.368,25.65,73.306,25.155,73.161,24.804z"/>
	<path d="M85.648,30.318c-0.495,0.95-1.776,2.128-4.296,2.128c-1.941,0-3.325-0.661-3.966-1.054
		c-0.351-0.228-0.682-0.496-0.991-0.806l1.859-1.508c0.082,0.104,0.206,0.289,0.475,0.517c0.889,0.764,2.21,0.806,2.499,0.806
		c0.62,0,1.343-0.145,1.756-0.62c0.165-0.165,0.269-0.393,0.269-0.599c0-0.083-0.021-0.248-0.165-0.434
		c-0.269-0.372-0.6-0.393-1.363-0.558c-0.682-0.145-1.363-0.228-2.024-0.393c-0.454-0.124-2.851-0.702-2.851-2.933
		c0-0.785,0.331-1.363,0.476-1.591c0.517-0.806,1.734-1.776,3.966-1.776c0.806,0,2.892,0.124,4.44,1.921l-1.756,1.632
		c-0.206-0.434-0.475-0.682-0.64-0.826c-0.641-0.558-1.322-0.744-2.169-0.744c-0.104,0-0.806,0-1.26,0.311
		c-0.372,0.248-0.455,0.578-0.455,0.764c0.021,0.352,0.269,0.6,0.331,0.641c0.269,0.206,0.95,0.372,1.776,0.517
		c0.558,0.103,1.115,0.186,1.673,0.31s1.177,0.31,1.632,0.641C85.235,26.932,86,27.654,86,28.914
		C86,29.41,85.876,29.885,85.648,30.318z"/>
</g>
</svg>
