<?xml version="1.0" encoding="utf-8"?>
<!-- Generator: Adobe Illustrator 16.0.0, SVG Export Plug-In . SVG Version: 6.00 Build 0)  -->
<!DOCTYPE svg PUBLIC "-//W3C//DTD SVG 1.1//EN" "http://www.w3.org/Graphics/SVG/1.1/DTD/svg11.dtd">
<svg version="1.1" id="Layer_1" xmlns="http://www.w3.org/2000/svg" xmlns:xlink="http://www.w3.org/1999/xlink" x="0px" y="0px"
	 width="120px" height="60px" viewBox="-10 -5 120 60" enable-background="new -10 -5 120 60" xml:space="preserve">
<g>
	<path d="M27.694,31.343l0.239-10.648l-2.809,10.648h-2.185L20.13,20.694l0.239,10.648H18V18.381h3.525l2.533,9.621l2.497-9.621
		h3.506v12.962H27.694z"/>
	<path d="M40.182,28.772c-0.367,0.937-1.561,2.847-4.296,2.847c-0.385,0-1.175-0.019-2.075-0.423
		c-0.955-0.422-2.699-1.708-2.699-4.479c0-0.992,0.275-1.727,0.404-2.056c0.385-0.918,1.56-2.772,4.296-2.772
		c0.349,0,1.157,0.036,2.02,0.422c0.991,0.422,2.699,1.653,2.717,4.407C40.549,27.047,40.53,27.91,40.182,28.772z M35.775,23.871
		c-0.202,0-0.753,0.038-1.249,0.349c-0.478,0.312-1.12,1.065-1.12,2.441c0,0.441,0.037,0.827,0.184,1.249
		c0.146,0.44,0.789,1.688,2.294,1.688c1.671,0,2.424-1.469,2.369-2.919C38.217,25.248,37.391,23.871,35.775,23.871z"/>
	<path d="M50.119,28.772c-0.367,0.937-1.561,2.847-4.296,2.847c-0.386,0-1.175-0.019-2.075-0.423
		c-0.955-0.422-2.699-1.708-2.699-4.479c0-0.992,0.275-1.727,0.404-2.056c0.385-0.918,1.561-2.772,4.296-2.772
		c0.349,0,1.157,0.036,2.02,0.422c0.991,0.422,2.698,1.653,2.717,4.407C50.486,27.047,50.468,27.91,50.119,28.772z M45.713,23.871
		c-0.202,0-0.753,0.038-1.249,0.349c-0.478,0.312-1.12,1.065-1.12,2.441c0,0.441,0.037,0.827,0.184,1.249
		c0.147,0.44,0.79,1.688,2.295,1.688c1.671,0,2.423-1.469,2.368-2.919C48.155,25.248,47.329,23.871,45.713,23.871z"/>
	<path d="M57.744,31.343l-2.772-4.112l-1.285,1.267v2.846h-2.185V18.381h2.185v7.289l3.58-3.507h2.809l-3.507,3.507l3.856,5.673
		H57.744z"/>
	<path d="M60.824,20.731V18.51h2.185v2.221H60.824z M60.824,31.343v-9.18h2.185v9.18H60.824z"/>
	<path d="M72.424,30.241c-0.514,0.478-1.744,1.378-3.636,1.378c-0.587,0-2.037-0.074-3.285-1.23
		c-1.047-0.991-1.433-2.259-1.433-3.69c0-0.771,0.11-1.505,0.403-2.204c0.404-0.917,1.543-2.606,4.204-2.606
		c2.057,0,3.14,1.065,3.617,1.762c0.423,0.643,0.845,1.763,0.9,3.543h-6.793c0.036,0.276,0.128,0.845,0.587,1.396
		c0.312,0.385,0.863,0.881,2.001,0.881c1.139,0,1.8-0.532,2.093-0.845c0.074-0.073,0.185-0.221,0.312-0.422l1.873,1.083
		C73.121,29.488,72.864,29.838,72.424,30.241z M70.588,24.826c-0.202-0.441-0.679-1.175-1.873-1.175
		c-0.477,0-0.734,0.092-0.918,0.166c-1.027,0.422-1.267,1.451-1.322,1.762h4.297C70.771,25.578,70.716,25.138,70.588,24.826z"/>
	<path d="M81.688,29.728c-0.44,0.845-1.579,1.892-3.818,1.892c-1.726,0-2.956-0.588-3.525-0.937
		c-0.312-0.202-0.605-0.441-0.881-0.717l1.652-1.34c0.073,0.092,0.184,0.257,0.422,0.459c0.79,0.679,1.965,0.716,2.222,0.716
		c0.551,0,1.193-0.128,1.561-0.551c0.146-0.146,0.239-0.349,0.239-0.532c0-0.073-0.019-0.221-0.147-0.386
		c-0.238-0.33-0.532-0.349-1.212-0.495c-0.605-0.129-1.211-0.202-1.799-0.349c-0.404-0.11-2.534-0.625-2.534-2.607
		c0-0.698,0.294-1.211,0.423-1.414c0.459-0.716,1.542-1.579,3.525-1.579c0.716,0,2.57,0.11,3.947,1.708l-1.562,1.45
		c-0.183-0.385-0.422-0.606-0.568-0.734c-0.569-0.496-1.175-0.661-1.928-0.661c-0.092,0-0.716,0-1.12,0.276
		c-0.33,0.22-0.404,0.514-0.404,0.679c0.019,0.312,0.238,0.533,0.294,0.569c0.239,0.183,0.845,0.331,1.579,0.459
		c0.496,0.091,0.991,0.165,1.487,0.275c0.495,0.11,1.046,0.274,1.45,0.569c0.33,0.238,1.01,0.881,1.01,2.001
		C82,28.92,81.89,29.342,81.688,29.728z"/>
</g>
</svg>
