<?xml version="1.0" encoding="utf-8"?>
<!-- Generator: Adobe Illustrator 16.0.0, SVG Export Plug-In . SVG Version: 6.00 Build 0)  -->
<!DOCTYPE svg PUBLIC "-//W3C//DTD SVG 1.1//EN" "http://www.w3.org/Graphics/SVG/1.1/DTD/svg11.dtd">
<svg version="1.1" id="Layer_1" xmlns="http://www.w3.org/2000/svg" xmlns:xlink="http://www.w3.org/1999/xlink" x="0px" y="0px"
	 width="40px" height="40px" viewBox="10 30 40 40" enable-background="new 10 30 40 40" xml:space="preserve">
<g>
	<polygon fill="#010101" points="22.8,38 22.8,42.8 32.4,42.8 32.4,45.2 27.6,50 32.4,50 37.199,45.2 37.199,45.2 37.199,45.2 
		37.199,38 	"/>
	<g>
		<path fill="#010101" d="M31.703,58.944l-0.058-0.058c-0.014-0.014-0.027-0.011-0.027-0.011h-0.373v0.529h0.375
			c0.004,0,0.016,0,0.024-0.011l0.059-0.057c0.015-0.015,0.01-0.029,0.01-0.029v-0.334C31.714,58.972,31.718,58.958,31.703,58.944z"
			/>
		<polygon fill="#010101" points="28.5,60.027 28.933,60.027 28.719,59.294 		"/>
		<path fill="#010101" d="M26.131,59.874c-0.007-0.008-0.018-0.012-0.021-0.012h-0.375v0.462h0.407l0.05-0.051
			c0.007-0.011,0.011-0.019,0.011-0.024v-0.29c0,0,0-0.015-0.011-0.025L26.131,59.874z"/>
		<path fill="#010101" d="M26.131,58.887c-0.007-0.011-0.018-0.011-0.021-0.011h-0.375v0.462h0.407l0.05-0.05
			c0.007-0.012,0.011-0.019,0.011-0.026v-0.29c0,0,0-0.014-0.011-0.024L26.131,58.887z"/>
		<path fill="#010101" d="M32.4,50L32.4,50v7.2H27.6V42.8l-4.8,4.8V62h14.399V50H32.4z M26.728,59.395c0,0,0.003,0.05-0.039,0.093
			l-0.139,0.144l0.139,0.139c0.025,0.025,0.032,0.047,0.035,0.065h0.004v0.682c0,0,0.003,0.052-0.039,0.094l-0.2,0.2
			c-0.043,0.044-0.093,0.039-0.093,0.039h-1.136c-0.029,0-0.05-0.021-0.05-0.05v-2.398c0-0.028,0.021-0.05,0.05-0.05h1.136
			c0,0,0.05-0.004,0.093,0.039l0.2,0.201c0.042,0.043,0.039,0.093,0.039,0.093V59.395z M29.633,60.85h-0.408
			c-0.028,0-0.053-0.025-0.064-0.05l-0.085-0.29h-0.719l-0.085,0.29c-0.011,0.024-0.036,0.05-0.064,0.05H27.8
			c-0.029,0-0.061-0.025-0.054-0.05l0.708-2.396V58.4c0.015-0.032,0.025-0.05,0.05-0.05h0.158h0.111h0.157
			c0.025,0,0.039,0.018,0.05,0.05v0.004c0.236,0.797,0.472,1.597,0.708,2.396C29.694,60.824,29.662,60.85,29.633,60.85z
			 M32.304,60.85h-0.479c-0.027,0-0.054-0.025-0.063-0.05l-0.351-0.87h-0.165v0.87c0,0.024-0.021,0.05-0.051,0.05H30.77
			c-0.024,0-0.051-0.025-0.051-0.05V58.4c0-0.028,0.025-0.05,0.051-0.05h1.136c0,0,0.05-0.007,0.094,0.035l0.203,0.205
			c0.043,0.042,0.036,0.1,0.036,0.1v0.908c0,0,0.007,0.05-0.036,0.093l-0.203,0.203l-0.011,0.008l0.365,0.897
			C32.36,60.824,32.328,60.85,32.304,60.85z M34.791,58.826c0,0.028-0.025,0.05-0.051,0.05h-0.825v0.462h0.633
			c0.028,0,0.051,0.021,0.051,0.05v0.425c0,0.029-0.021,0.051-0.051,0.051h-0.633v0.461h0.825c0.025,0,0.051,0.021,0.051,0.05v0.425
			c0,0.028-0.025,0.051-0.051,0.051h-1.301c-0.028,0-0.05-0.021-0.05-0.051V58.4c0-0.027,0.021-0.05,0.05-0.05h1.301
			c0.025,0,0.051,0.021,0.051,0.05V58.826L34.791,58.826z"/>
	</g>
</g>
</svg>
