<?xml version="1.0" encoding="utf-8"?>
<!-- Generator: Adobe Illustrator 16.0.0, SVG Export Plug-In . SVG Version: 6.00 Build 0)  -->
<!DOCTYPE svg PUBLIC "-//W3C//DTD SVG 1.1//EN" "http://www.w3.org/Graphics/SVG/1.1/DTD/svg11.dtd">
<svg version="1.1" id="Layer_1" xmlns="http://www.w3.org/2000/svg" xmlns:xlink="http://www.w3.org/1999/xlink" x="0px" y="0px"
	 width="150px" height="50px" viewBox="-25 -13.911 150 50" enable-background="new -25 -13.911 150 50" xml:space="preserve">
<g>
	<path d="M48.264,5.784c-3.632,0-5.377,2.859-5.377,5.287v0.019c0,2.447,1.744,5.306,5.377,5.306c3.633,0,5.377-2.858,5.377-5.306
		C53.641,8.643,51.896,5.784,48.264,5.784z M48.264,13.893c-1.443,0-2.665-1.183-2.665-2.785v-0.021
		c0-1.622,1.222-2.804,2.665-2.804c1.442,0,2.664,1.182,2.664,2.804C50.928,12.71,49.707,13.893,48.264,13.893z"/>
	<path d="M60.744,6.107l-2.163,6.547l-2.16-6.547h-2.78l3.272,8.959c0.25,0.684,0.902,1.17,1.669,1.17
		c0.768,0,1.419-0.486,1.669-1.17l3.272-8.959H60.744z"/>
	<path d="M70.871,12.987l-0.008,0.017c-0.406,0.631-0.973,1.13-2.048,1.13c-1.316,0-2.452-0.847-2.593-2.127h4.158h0.909h2.661
		c0.2-1.783-0.19-3.341-1.418-4.659c-0.938-0.99-2.25-1.582-3.778-1.582c-3.037,0-5.231,2.571-5.231,5.359
		c0,2.969,2.428,5.286,5.286,5.286c1.026,0,2.014-0.305,2.841-0.899c0.837-0.57,1.533-1.422,2.019-2.523L70.871,12.987
		L70.871,12.987z M68.773,8.065c1.76,0,2.455,1.338,2.536,1.899h-5.075C66.318,9.402,67.013,8.065,68.773,8.065z"/>
	<path d="M36.979,11.394v0.02v4.573h2.712v-4.573c0-1.625,1.222-2.806,2.664-2.806v-2.5C38.723,6.107,36.979,8.966,36.979,11.394z"
		/>
	<polygon points="35.881,9.691 32.298,9.691 32.298,6.107 29.585,6.107 29.585,9.691 26.001,9.691 26.001,12.403 29.585,12.403 
		29.585,15.987 32.298,15.987 32.298,12.403 35.881,12.403 	"/>
</g>
</svg>
