<?xml version="1.0" encoding="utf-8"?>
<!-- Generator: Adobe Illustrator 16.0.0, SVG Export Plug-In . SVG Version: 6.00 Build 0)  -->
<!DOCTYPE svg PUBLIC "-//W3C//DTD SVG 1.1//EN" "http://www.w3.org/Graphics/SVG/1.1/DTD/svg11.dtd">
<svg version="1.1" id="Layer_1" xmlns="http://www.w3.org/2000/svg" xmlns:xlink="http://www.w3.org/1999/xlink" x="0px" y="0px"
	 width="120px" height="40px" viewBox="-10 -8.911 120 40" enable-background="new -10 -8.911 120 40" xml:space="preserve">
<g>
	<path d="M48.553,6.667c-3.027,0-4.481,2.382-4.481,4.406v0.016c0,2.039,1.453,4.421,4.481,4.421c3.027,0,4.48-2.382,4.48-4.421
		S51.58,6.667,48.553,6.667z M48.553,13.426c-1.202,0-2.221-0.985-2.221-2.321v-0.018c0-1.352,1.019-2.336,2.221-2.336
		c1.201,0,2.22,0.985,2.22,2.336C50.773,12.44,49.755,13.426,48.553,13.426z"/>
	<path d="M58.953,6.938l-1.802,5.455l-1.801-5.455h-2.317l2.728,7.467c0.209,0.568,0.752,0.975,1.392,0.975
		c0.639,0,1.183-0.406,1.39-0.975l2.728-7.467H58.953z"/>
	<path d="M67.393,12.671l-0.006,0.015c-0.339,0.525-0.811,0.94-1.706,0.94c-1.098,0-2.044-0.706-2.161-1.771h3.465h0.757h2.218
		c0.167-1.486-0.157-2.785-1.182-3.883c-0.781-0.825-1.875-1.318-3.147-1.318c-2.531,0-4.36,2.143-4.36,4.466
		c0,2.475,2.023,4.405,4.405,4.405c0.855,0,1.678-0.254,2.368-0.749c0.696-0.477,1.277-1.186,1.681-2.104L67.393,12.671
		L67.393,12.671z M65.645,8.569c1.467,0,2.047,1.115,2.114,1.583h-4.229C63.6,9.684,64.177,8.569,65.645,8.569z"/>
	<path d="M39.148,11.343v0.017v3.811h2.261v-3.811c0-1.354,1.019-2.339,2.22-2.339V6.938C40.603,6.938,39.148,9.319,39.148,11.343z"
		/>
	<polygon points="38.234,9.924 35.248,9.924 35.248,6.938 32.987,6.938 32.987,9.924 30.001,9.924 30.001,12.185 32.987,12.185 
		32.987,15.171 35.248,15.171 35.248,12.185 38.234,12.185 	"/>
</g>
</svg>
