<?xml version="1.0" encoding="utf-8"?>
<!-- Generator: Adobe Illustrator 16.0.0, SVG Export Plug-In . SVG Version: 6.00 Build 0)  -->
<!DOCTYPE svg PUBLIC "-//W3C//DTD SVG 1.1//EN" "http://www.w3.org/Graphics/SVG/1.1/DTD/svg11.dtd">
<svg version="1.1" id="Layer_1" xmlns="http://www.w3.org/2000/svg" xmlns:xlink="http://www.w3.org/1999/xlink" x="0px" y="0px"
	 width="150px" height="50px" viewBox="-25 -13.911 150 50" enable-background="new -25 -13.911 150 50" xml:space="preserve">
<g>
	<path d="M47.829,4.457c-4.54,0-6.72,3.574-6.72,6.608v0.023c0,3.059,2.179,6.633,6.72,6.633c4.542,0,6.722-3.574,6.722-6.633
		C54.551,8.031,52.37,4.457,47.829,4.457z M47.829,14.593c-1.803,0-3.33-1.478-3.33-3.48v-0.025c0-2.028,1.527-3.506,3.33-3.506
		s3.332,1.478,3.332,3.506S49.633,14.593,47.829,14.593z"/>
	<path d="M63.43,4.862l-2.703,8.185l-2.701-8.185h-3.475l4.091,11.199c0.312,0.854,1.128,1.462,2.086,1.462
		c0.959,0,1.773-0.607,2.087-1.462l4.09-11.199H63.43z"/>
	<path d="M76.089,13.463l-0.011,0.021c-0.506,0.788-1.216,1.411-2.559,1.411c-1.646,0-3.064-1.058-3.242-2.659h5.199h1.137h3.325
		c0.25-2.228-0.236-4.175-1.771-5.822c-1.172-1.237-2.812-1.978-4.723-1.978c-3.798,0-6.54,3.213-6.54,6.698
		c0,3.71,3.034,6.607,6.608,6.607c1.282,0,2.516-0.381,3.551-1.123c1.046-0.713,1.917-1.778,2.523-3.154L76.089,13.463
		L76.089,13.463z M73.467,7.309c2.199,0,3.069,1.673,3.171,2.375h-6.344C70.398,8.98,71.267,7.309,73.467,7.309z"/>
	<path d="M33.723,11.47v0.024v5.717h3.39v-5.717c0-2.03,1.528-3.507,3.33-3.507V4.862C35.903,4.862,33.723,8.436,33.723,11.47z"/>
	<polygon points="32.351,9.342 27.872,9.342 27.872,4.862 24.481,4.862 24.481,9.342 20,9.342 20,12.731 24.481,12.731 
		24.481,17.212 27.872,17.212 27.872,12.731 32.351,12.731 	"/>
</g>
</svg>
