<?xml version="1.0" encoding="utf-8"?>
<!-- Generator: Adobe Illustrator 16.0.0, SVG Export Plug-In . SVG Version: 6.00 Build 0)  -->
<!DOCTYPE svg PUBLIC "-//W3C//DTD SVG 1.1//EN" "http://www.w3.org/Graphics/SVG/1.1/DTD/svg11.dtd">
<svg version="1.1" id="Layer_1" xmlns="http://www.w3.org/2000/svg" xmlns:xlink="http://www.w3.org/1999/xlink" x="0px" y="0px"
	 width="150px" height="50px" viewBox="-25 -4.03 150 50" enable-background="new -25 -4.03 150 50" xml:space="preserve">
<g>
	<g>
		<path fill="#041E42" d="M35.955,20.294h-4.614l-0.152,0.571h4.46C35.748,20.672,35.85,20.482,35.955,20.294z"/>
		<path fill="#041E42" d="M37.258,18.308h-7.916L29.19,18.88h7.651C36.977,18.685,37.115,18.494,37.258,18.308z"/>
		<path fill="#041E42" d="M40.593,15.032h-5.897l-0.152,0.571h5.318C40.093,15.414,40.337,15.224,40.593,15.032z"/>
		<path fill="#041E42" d="M26.452,33.552c-1.153,0-2.155-0.262-2.979-0.776c-0.822-0.513-1.5-1.189-2.012-2.012
			c-0.511-0.815-0.886-1.735-1.117-2.736C20.115,27.039,20,26.039,20,25.056c0-1.149,0.122-2.325,0.361-3.493
			c0.238-1.166,0.584-2.322,1.029-3.433c0.442-1.108,0.993-2.184,1.635-3.195c0.64-1.01,1.36-1.954,2.141-2.81
			c0.907-0.979,1.975-1.853,3.173-2.597c1.216-0.757,2.551-1.14,3.967-1.14c1.25,0,2.362,0.331,3.304,0.985
			c0.934,0.649,1.674,1.527,2.196,2.611l0.093,0.192l-2.967,1.463l-0.093-0.196c-0.252-0.524-0.598-0.957-1.028-1.286
			c-0.421-0.321-0.927-0.484-1.505-0.484c-0.898,0-1.762,0.283-2.569,0.838c-0.832,0.573-1.553,1.188-2.146,1.831
			c-0.641,0.691-1.233,1.473-1.757,2.322c-0.524,0.85-0.984,1.749-1.366,2.672c-0.381,0.922-0.676,1.885-0.879,2.864
			c-0.202,0.976-0.305,1.942-0.305,2.877c0,0.527,0.047,1.105,0.142,1.72c0.093,0.609,0.266,1.181,0.509,1.692
			c0.24,0.504,0.57,0.934,0.981,1.278c0.399,0.336,0.9,0.497,1.533,0.497c0.805,0,1.587-0.228,2.325-0.679
			c0.76-0.463,1.432-0.971,1.999-1.515l0.153-0.147l2.298,2.341l-0.152,0.151c-0.858,0.846-1.865,1.587-2.993,2.199
			C28.939,33.237,27.719,33.552,26.452,33.552z M32.306,8.818c-1.335,0-2.593,0.362-3.741,1.076
			c-1.164,0.725-2.202,1.574-3.083,2.523c-0.762,0.836-1.467,1.761-2.094,2.749c-0.628,0.989-1.166,2.041-1.599,3.125
			c-0.435,1.088-0.774,2.219-1.007,3.358c-0.233,1.141-0.353,2.288-0.353,3.408c0,0.949,0.112,1.916,0.333,2.876
			c0.219,0.954,0.577,1.829,1.062,2.604c0.478,0.766,1.109,1.396,1.875,1.875c0.756,0.472,1.681,0.712,2.752,0.712
			c1.193,0,2.346-0.298,3.424-0.885c1.025-0.557,1.947-1.222,2.742-1.979l-1.7-1.73c-0.556,0.511-1.2,0.99-1.917,1.427
			c-0.807,0.489-1.664,0.741-2.549,0.741c-0.728,0-1.337-0.202-1.81-0.599c-0.46-0.385-0.827-0.863-1.093-1.423
			c-0.262-0.551-0.445-1.162-0.545-1.813c-0.098-0.636-0.148-1.236-0.148-1.784c0-0.964,0.106-1.962,0.313-2.965
			c0.208-1.004,0.512-1.993,0.903-2.941c0.39-0.944,0.86-1.863,1.397-2.733c0.538-0.874,1.146-1.677,1.807-2.388
			c0.613-0.665,1.359-1.301,2.217-1.893c0.879-0.606,1.826-0.914,2.812-0.914c0.674,0,1.268,0.193,1.765,0.572
			c0.431,0.329,0.785,0.748,1.056,1.248l2.197-1.084c-0.483-0.929-1.142-1.687-1.959-2.254C34.497,9.124,33.467,8.818,32.306,8.818z
			"/>
		<path fill="#041E42" d="M51.063,28.783h-6.104l4.429-16.619h3.009l-3.659,13.732h3.097L51.063,28.783z M45.519,28.353h5.213
			l0.542-2.026h-3.095l3.658-13.733h-2.12L45.519,28.353z"/>
		<path fill="#041E42" d="M55.571,28.783h-3.875l0.771-2.888h3.104c0.28,0,0.583-0.131,0.894-0.39
			c0.299-0.247,0.446-0.516,0.453-0.822l-1.402-7.741c-0.022-0.108-0.039-0.221-0.049-0.332c-0.014-0.106-0.016-0.217-0.016-0.336
			c0-0.555,0.123-1.087,0.363-1.586c0.24-0.494,0.56-0.932,0.949-1.304c0.394-0.372,0.851-0.671,1.359-0.889
			c0.514-0.221,1.038-0.332,1.564-0.332h3.688l-0.771,2.887h-0.167c-0.179,0-0.41-0.01-0.687-0.029
			c-0.546-0.035-1.194-0.044-1.84,0.019c-0.3,0.029-0.574,0.094-0.813,0.189c-0.229,0.092-0.419,0.217-0.561,0.37
			c-0.129,0.138-0.191,0.321-0.191,0.56v0.105l1.398,7.72c0.02,0.115,0.033,0.223,0.044,0.333c0.012,0.119,0.016,0.229,0.016,0.331
			c0,0.554-0.124,1.085-0.364,1.585c-0.238,0.489-0.558,0.933-0.946,1.312c-0.388,0.382-0.845,0.687-1.358,0.906
			C56.627,28.672,56.1,28.783,55.571,28.783z M52.256,28.353h3.315c0.47,0,0.94-0.1,1.397-0.297
			c0.463-0.196,0.874-0.472,1.226-0.817c0.354-0.345,0.644-0.746,0.86-1.192c0.212-0.438,0.32-0.909,0.32-1.395
			c0-0.093-0.004-0.188-0.014-0.296c-0.008-0.096-0.02-0.192-0.037-0.295l-1.408-7.757v-0.146c0-0.348,0.104-0.634,0.309-0.852
			c0.186-0.199,0.426-0.358,0.714-0.475c0.278-0.112,0.592-0.186,0.935-0.219c0.668-0.064,1.34-0.057,1.909-0.019
			c0.188,0.013,0.354,0.021,0.495,0.025l0.54-2.025h-3.128c-0.466,0-0.936,0.1-1.396,0.298c-0.463,0.198-0.879,0.47-1.232,0.807
			c-0.354,0.335-0.643,0.732-0.858,1.178c-0.216,0.439-0.322,0.91-0.322,1.398c0,0.106,0.005,0.202,0.012,0.294
			c0.013,0.096,0.024,0.195,0.046,0.293l1.411,7.784v0.019c0,0.444-0.206,0.838-0.61,1.173c-0.391,0.325-0.787,0.488-1.169,0.488
			h-2.772L52.256,28.353z"/>
		<path fill="#041E42" d="M65.789,28.783c-0.786,0-1.477-0.18-2.051-0.533c-0.564-0.349-1.037-0.808-1.396-1.365
			c-0.354-0.55-0.621-1.172-0.793-1.85c-0.171-0.669-0.256-1.345-0.256-2.011c0-0.681,0.089-1.435,0.27-2.238
			c0.177-0.8,0.435-1.613,0.762-2.414c0.326-0.801,0.73-1.582,1.206-2.32c0.476-0.743,1.022-1.409,1.626-1.981
			c0.607-0.576,1.273-1.041,1.979-1.383c0.714-0.348,1.492-0.524,2.314-0.524c0.786,0,1.476,0.18,2.051,0.534
			c0.564,0.35,1.037,0.803,1.395,1.349c0.354,0.538,0.623,1.155,0.795,1.835c0.171,0.674,0.258,1.35,0.258,2.009
			c0,1.04-0.197,2.204-0.588,3.462c-0.39,1.255-0.945,2.441-1.652,3.529c-0.709,1.09-1.572,2.021-2.568,2.765
			C68.126,28.4,66.999,28.783,65.789,28.783z M69.448,12.594c-0.757,0-1.474,0.162-2.126,0.48c-0.666,0.323-1.295,0.764-1.869,1.309
			c-0.579,0.548-1.104,1.188-1.563,1.902c-0.461,0.717-0.854,1.475-1.169,2.25c-0.318,0.779-0.566,1.568-0.742,2.345
			c-0.17,0.774-0.26,1.494-0.26,2.144c0,0.63,0.081,1.271,0.243,1.906c0.16,0.631,0.409,1.211,0.737,1.723
			c0.327,0.503,0.75,0.918,1.261,1.233c0.505,0.31,1.119,0.468,1.827,0.468c1.113,0,2.156-0.355,3.093-1.053
			c0.953-0.715,1.784-1.606,2.466-2.655c0.685-1.055,1.222-2.206,1.601-3.423c0.377-1.216,0.568-2.337,0.568-3.334
			c0-0.624-0.082-1.265-0.243-1.904c-0.161-0.632-0.41-1.205-0.738-1.703c-0.325-0.494-0.75-0.903-1.263-1.22
			C70.767,12.753,70.153,12.594,69.448,12.594z M65.789,26.327c-0.43,0-0.786-0.126-1.057-0.371
			c-0.255-0.229-0.458-0.519-0.605-0.862c-0.144-0.33-0.244-0.682-0.299-1.044c-0.056-0.354-0.081-0.69-0.081-0.991
			c0-0.692,0.142-1.522,0.418-2.471c0.275-0.944,0.669-1.866,1.171-2.74c0.504-0.877,1.107-1.636,1.792-2.257
			c0.71-0.644,1.501-0.969,2.351-0.969c0.432,0,0.787,0.125,1.06,0.371c0.257,0.232,0.454,0.523,0.591,0.868
			c0.131,0.332,0.226,0.687,0.282,1.057c0.055,0.375,0.079,0.694,0.079,0.975c0,0.689-0.14,1.525-0.417,2.484
			c-0.28,0.959-0.668,1.887-1.154,2.755c-0.49,0.877-1.089,1.633-1.778,2.243C67.43,26.007,66.639,26.327,65.789,26.327z
			 M69.479,15.051c-0.74,0-1.435,0.289-2.063,0.857c-0.65,0.59-1.225,1.314-1.704,2.152c-0.485,0.844-0.866,1.735-1.131,2.646
			c-0.266,0.91-0.401,1.699-0.401,2.349c0,0.284,0.026,0.596,0.076,0.93c0.051,0.324,0.14,0.639,0.269,0.938
			c0.123,0.287,0.289,0.526,0.498,0.715c0.192,0.175,0.444,0.26,0.768,0.26c0.742,0,1.436-0.284,2.065-0.843
			c0.651-0.582,1.221-1.299,1.688-2.136c0.471-0.839,0.848-1.735,1.115-2.662c0.267-0.922,0.401-1.717,0.401-2.365
			c0-0.258-0.026-0.564-0.078-0.913c-0.05-0.337-0.135-0.66-0.255-0.961c-0.112-0.281-0.274-0.52-0.48-0.708
			C70.056,15.135,69.803,15.051,69.479,15.051z"/>
		<path fill="#041E42" d="M78.666,28.783h-6.104l4.428-16.619H80l-3.659,13.732h3.094L78.666,28.783z M73.121,28.353h5.215
			l0.541-2.026h-3.095l3.657-13.733H77.32L73.121,28.353z"/>
		<path fill="#041E42" d="M43.908,28.799h-3.006l0.719-2.751l-4.057-0.002l-0.054,0.576l0.008,0.771l0,0c0,0,0.028,0.635,0.028,1.19
			v0.214H34.36l-0.014-0.199c-0.057-0.759-0.017-1.348,0.037-1.986c0.016-0.184,0.035-0.37,0.058-0.565h-5.53l0.769-2.886h5.387
			c0.204-0.614,0.451-1.22,0.757-1.845c0.824-1.688,1.902-3.195,3.205-4.48c0.504-0.505,1.127-1.035,1.852-1.571
			c0.72-0.535,1.5-1.04,2.32-1.504c0.819-0.463,1.656-0.848,2.488-1.144c0.842-0.3,1.64-0.452,2.37-0.452h0.279L43.908,28.799z
			 M41.458,28.369h2.119l4.198-15.766c-0.604,0.034-1.257,0.174-1.944,0.419c-0.808,0.288-1.622,0.662-2.42,1.113
			c-0.804,0.455-1.569,0.952-2.275,1.476c-0.707,0.524-1.314,1.039-1.805,1.53c-1.269,1.252-2.319,2.721-3.121,4.365
			c-0.321,0.656-0.577,1.289-0.783,1.935l-0.048,0.15h-5.37l-0.54,2.023h5.459l-0.032,0.242c-0.037,0.281-0.066,0.537-0.087,0.789
			c-0.049,0.582-0.084,1.086-0.049,1.721h2.355c-0.005-0.484-0.027-0.959-0.028-0.965l-0.009-0.803l0.094-0.985l5.004,0.001
			L41.458,28.369z M42.716,23.592h-5.164l0.109-0.29c0.59-1.581,1.488-3.024,2.67-4.292c1.18-1.264,2.536-2.278,4.032-3.016
			l0.424-0.209L42.716,23.592z M38.175,23.161h4.21l1.741-6.562c-1.282,0.692-2.45,1.599-3.481,2.704
			C39.575,20.45,38.746,21.747,38.175,23.161z"/>
	</g>
	<g>
		<path fill="#FFC72C" d="M34.072,11.816c0.43,0.33,0.785,0.748,1.056,1.248l2.197-1.084c-0.483-0.929-1.142-1.687-1.959-2.254
			c-0.869-0.603-1.898-0.908-3.059-0.908c-1.334,0-2.593,0.361-3.741,1.075c-1.164,0.725-2.202,1.574-3.083,2.524
			c-0.762,0.835-1.467,1.761-2.094,2.749c-0.628,0.989-1.166,2.041-1.599,3.125c-0.435,1.088-0.774,2.219-1.007,3.358
			c-0.234,1.142-0.353,2.288-0.353,3.409c0,0.949,0.113,1.916,0.333,2.876c0.219,0.953,0.577,1.828,1.062,2.604
			c0.478,0.766,1.109,1.396,1.875,1.875c0.755,0.473,1.681,0.713,2.751,0.713c1.193,0,2.346-0.298,3.424-0.885
			c1.025-0.558,1.947-1.222,2.742-1.979l-1.7-1.73c-0.556,0.512-1.2,0.991-1.917,1.427c-0.807,0.49-1.664,0.741-2.549,0.741
			c-0.728,0-1.337-0.201-1.81-0.599c-0.46-0.384-0.827-0.862-1.093-1.422c-0.261-0.553-0.445-1.163-0.545-1.813
			c-0.098-0.636-0.148-1.236-0.148-1.785c0-0.964,0.106-1.961,0.314-2.965c0.207-1.003,0.511-1.993,0.903-2.941
			c0.39-0.944,0.859-1.863,1.397-2.733c0.538-0.874,1.146-1.677,1.806-2.388c0.614-0.664,1.359-1.302,2.217-1.893
			c0.879-0.605,1.826-0.914,2.812-0.914C32.98,11.245,33.575,11.437,34.072,11.816z"/>
		<polygon fill="#FFC72C" points="48.18,26.327 51.837,12.594 49.717,12.594 45.519,28.353 50.733,28.353 51.274,26.327 		"/>
		<path fill="#FFC72C" d="M61.782,14.594c0.188,0.013,0.354,0.021,0.495,0.025l0.54-2.025h-3.128c-0.466,0-0.936,0.1-1.396,0.298
			c-0.463,0.198-0.879,0.47-1.232,0.807c-0.354,0.335-0.643,0.732-0.858,1.178c-0.216,0.439-0.322,0.91-0.322,1.398
			c0,0.106,0.005,0.202,0.012,0.294c0.013,0.096,0.024,0.195,0.046,0.293l1.411,7.784v0.019c0,0.444-0.206,0.838-0.61,1.173
			c-0.391,0.325-0.787,0.488-1.169,0.488h-2.772l-0.543,2.027h3.316c0.469,0,0.939-0.101,1.398-0.297
			c0.463-0.196,0.874-0.472,1.226-0.817c0.354-0.345,0.644-0.746,0.859-1.192c0.212-0.439,0.32-0.909,0.32-1.395
			c0-0.093-0.005-0.189-0.013-0.296c-0.01-0.097-0.021-0.193-0.038-0.295l-1.405-7.757v-0.145c0-0.349,0.102-0.634,0.307-0.853
			c0.186-0.198,0.426-0.358,0.715-0.475c0.277-0.112,0.592-0.186,0.935-0.219C60.541,14.548,61.213,14.556,61.782,14.594z"/>
		<path fill="#FFC72C" d="M71.347,24.646c0.686-1.055,1.222-2.207,1.602-3.423c0.377-1.216,0.567-2.337,0.567-3.334
			c0-0.624-0.082-1.265-0.243-1.903c-0.161-0.632-0.409-1.206-0.736-1.703c-0.326-0.494-0.75-0.903-1.263-1.219
			c-0.507-0.312-1.12-0.47-1.825-0.47c-0.757,0-1.474,0.162-2.126,0.48c-0.666,0.323-1.295,0.764-1.869,1.309
			c-0.579,0.548-1.104,1.188-1.563,1.902c-0.461,0.717-0.854,1.475-1.169,2.25c-0.318,0.779-0.566,1.568-0.742,2.345
			c-0.17,0.774-0.26,1.495-0.26,2.144c0,0.631,0.081,1.271,0.243,1.906c0.16,0.631,0.409,1.211,0.737,1.723
			c0.327,0.503,0.75,0.918,1.261,1.233c0.505,0.309,1.119,0.469,1.827,0.469c1.113,0,2.156-0.356,3.093-1.054
			C69.836,26.587,70.666,25.695,71.347,24.646z M68.139,25.375c-0.709,0.632-1.5,0.952-2.35,0.952c-0.43,0-0.786-0.126-1.057-0.371
			c-0.255-0.229-0.458-0.519-0.605-0.862c-0.144-0.33-0.244-0.682-0.299-1.044c-0.056-0.354-0.081-0.69-0.081-0.991
			c0-0.692,0.142-1.522,0.418-2.471c0.275-0.944,0.669-1.866,1.171-2.74c0.504-0.877,1.107-1.636,1.792-2.257
			c0.71-0.644,1.501-0.969,2.351-0.969c0.432,0,0.787,0.125,1.06,0.371c0.257,0.232,0.454,0.523,0.591,0.868
			c0.131,0.332,0.226,0.687,0.282,1.057c0.055,0.375,0.079,0.694,0.079,0.975c0,0.689-0.14,1.525-0.417,2.484
			c-0.28,0.959-0.668,1.887-1.154,2.755C69.426,24.007,68.828,24.762,68.139,25.375z"/>
		<polygon fill="#FFC72C" points="75.783,26.327 79.439,12.594 77.32,12.594 73.121,28.353 78.336,28.353 78.877,26.327 		"/>
		<path fill="#FFC72C" d="M45.832,13.021c-0.808,0.288-1.622,0.662-2.42,1.113c-0.804,0.455-1.569,0.952-2.275,1.475
			c-0.707,0.525-1.314,1.039-1.805,1.531c-1.269,1.252-2.319,2.721-3.121,4.365c-0.321,0.656-0.577,1.289-0.783,1.936L35.38,23.59
			h-5.37l-0.54,2.024h5.459l-0.032,0.242c-0.037,0.28-0.066,0.537-0.087,0.789c-0.049,0.581-0.084,1.085-0.049,1.72h2.355
			c-0.005-0.484-0.027-0.959-0.028-0.964l-0.009-0.803l0.094-0.986l5.004,0.001l-0.719,2.751h2.119l4.199-15.767
			C47.171,12.636,46.519,12.777,45.832,13.021z M42.716,23.592h-5.164l0.109-0.29c0.59-1.581,1.488-3.024,2.67-4.292
			c1.18-1.264,2.536-2.278,4.032-3.016l0.424-0.209L42.716,23.592z"/>
	</g>
</g>
</svg>
