<?xml version="1.0" encoding="utf-8"?>
<!-- Generator: Adobe Illustrator 16.0.0, SVG Export Plug-In . SVG Version: 6.00 Build 0)  -->
<!DOCTYPE svg PUBLIC "-//W3C//DTD SVG 1.1//EN" "http://www.w3.org/Graphics/SVG/1.1/DTD/svg11.dtd">
<svg version="1.1" id="Layer_1" xmlns="http://www.w3.org/2000/svg" xmlns:xlink="http://www.w3.org/1999/xlink" x="0px" y="0px"
	 width="120px" height="40px" viewBox="-10 0.97 120 40" enable-background="new -10 0.97 120 40" xml:space="preserve">
<g>
	<g>
		<path fill="#041E42" d="M36.892,20.339h-4.306l-0.143,0.533h4.163C36.698,20.692,36.793,20.514,36.892,20.339z"/>
		<path fill="#041E42" d="M38.107,18.486h-7.388l-0.142,0.533h7.142C37.845,18.837,37.974,18.659,38.107,18.486z"/>
		<path fill="#041E42" d="M41.22,15.428h-5.504l-0.142,0.533h4.963C40.754,15.785,40.981,15.607,41.22,15.428z"/>
		<path fill="#041E42" d="M28.022,32.714c-1.076,0-2.011-0.244-2.781-0.725c-0.768-0.479-1.399-1.11-1.877-1.878
			c-0.477-0.761-0.827-1.619-1.043-2.554C22.107,26.635,22,25.701,22,24.784c0-1.072,0.113-2.17,0.337-3.26
			c0.222-1.089,0.545-2.167,0.96-3.204c0.413-1.035,0.927-2.038,1.526-2.982c0.597-0.942,1.27-1.823,1.999-2.623
			c0.846-0.914,1.843-1.729,2.961-2.424c1.135-0.707,2.381-1.064,3.703-1.064c1.167,0,2.205,0.309,3.083,0.919
			c0.872,0.606,1.562,1.425,2.05,2.438l0.087,0.18l-2.77,1.365l-0.087-0.183c-0.235-0.489-0.558-0.893-0.959-1.2
			c-0.393-0.299-0.865-0.452-1.404-0.452c-0.838,0-1.645,0.265-2.397,0.782c-0.776,0.535-1.449,1.109-2.002,1.709
			c-0.599,0.645-1.151,1.375-1.64,2.167c-0.489,0.793-0.918,1.632-1.274,2.494c-0.355,0.861-0.631,1.76-0.82,2.673
			c-0.188,0.91-0.285,1.812-0.285,2.686c0,0.492,0.044,1.031,0.132,1.604c0.087,0.569,0.248,1.103,0.476,1.58
			c0.224,0.47,0.532,0.871,0.916,1.192c0.373,0.313,0.84,0.464,1.431,0.464c0.751,0,1.481-0.212,2.17-0.633
			c0.709-0.433,1.336-0.906,1.866-1.414l0.143-0.138l2.145,2.185l-0.142,0.142c-0.801,0.789-1.741,1.481-2.793,2.053
			C30.343,32.42,29.204,32.714,28.022,32.714z M33.486,9.628c-1.246,0-2.42,0.338-3.491,1.004c-1.087,0.676-2.056,1.469-2.878,2.355
			c-0.711,0.78-1.369,1.643-1.955,2.565c-0.586,0.923-1.088,1.905-1.492,2.917c-0.406,1.015-0.723,2.071-0.94,3.135
			c-0.218,1.064-0.329,2.135-0.329,3.181c0,0.886,0.105,1.788,0.312,2.685c0.205,0.891,0.538,1.707,0.991,2.431
			c0.446,0.715,1.035,1.304,1.75,1.75c0.706,0.44,1.569,0.664,2.568,0.664c1.114,0,2.19-0.277,3.196-0.825
			c0.957-0.52,1.817-1.141,2.559-1.847l-1.587-1.615c-0.519,0.477-1.12,0.924-1.79,1.331c-0.753,0.457-1.553,0.692-2.379,0.692
			c-0.679,0-1.248-0.188-1.689-0.559c-0.429-0.359-0.772-0.806-1.02-1.328c-0.244-0.515-0.416-1.085-0.509-1.692
			c-0.092-0.594-0.138-1.154-0.138-1.666c0-0.899,0.099-1.831,0.292-2.767c0.194-0.937,0.478-1.86,0.843-2.746
			c0.364-0.881,0.803-1.738,1.304-2.551c0.502-0.815,1.07-1.565,1.687-2.229c0.572-0.621,1.268-1.215,2.069-1.767
			c0.821-0.565,1.704-0.853,2.625-0.853c0.629,0,1.184,0.18,1.647,0.534c0.402,0.307,0.733,0.698,0.986,1.165l2.051-1.012
			c-0.451-0.867-1.066-1.574-1.829-2.104C35.531,9.913,34.569,9.628,33.486,9.628z"/>
		<path fill="#041E42" d="M50.992,28.262h-5.697l4.134-15.512h2.808l-3.415,12.817h2.891L50.992,28.262z M45.818,27.861h4.866
			l0.506-1.892h-2.889l3.414-12.817h-1.979L45.818,27.861z"/>
		<path fill="#041E42" d="M55.2,28.262h-3.617l0.72-2.695H55.2c0.262,0,0.544-0.122,0.834-0.364c0.278-0.23,0.416-0.48,0.423-0.767
			l-1.31-7.225c-0.021-0.101-0.036-0.206-0.045-0.31c-0.013-0.099-0.015-0.202-0.015-0.314c0-0.518,0.114-1.015,0.339-1.48
			c0.225-0.461,0.522-0.87,0.886-1.217c0.367-0.348,0.794-0.626,1.269-0.83c0.479-0.207,0.97-0.31,1.461-0.31h3.441l-0.719,2.694
			h-0.156c-0.167,0-0.383-0.009-0.641-0.027c-0.51-0.033-1.115-0.041-1.718,0.018c-0.279,0.027-0.535,0.087-0.759,0.177
			c-0.214,0.086-0.391,0.202-0.523,0.345c-0.12,0.129-0.179,0.3-0.179,0.522v0.098l1.306,7.206c0.018,0.107,0.031,0.208,0.041,0.311
			c0.011,0.111,0.015,0.215,0.015,0.31c0,0.517-0.116,1.013-0.34,1.479c-0.223,0.456-0.521,0.87-0.884,1.225
			c-0.361,0.356-0.788,0.641-1.268,0.846C56.186,28.158,55.693,28.262,55.2,28.262z M52.105,27.861H55.2
			c0.438,0,0.877-0.093,1.304-0.277c0.433-0.183,0.816-0.44,1.145-0.763c0.33-0.321,0.601-0.696,0.803-1.113
			c0.197-0.409,0.299-0.848,0.299-1.301c0-0.087-0.004-0.176-0.013-0.276c-0.008-0.09-0.019-0.18-0.035-0.275l-1.313-7.24v-0.136
			c0-0.325,0.097-0.591,0.288-0.795c0.173-0.186,0.396-0.334,0.666-0.443c0.26-0.104,0.552-0.173,0.872-0.204
			c0.623-0.06,1.251-0.053,1.782-0.018c0.176,0.012,0.33,0.019,0.462,0.023l0.504-1.89h-2.919c-0.436,0-0.874,0.093-1.304,0.278
			c-0.433,0.185-0.82,0.438-1.15,0.753c-0.331,0.313-0.6,0.684-0.801,1.1c-0.202,0.41-0.301,0.85-0.301,1.305
			c0,0.099,0.004,0.188,0.011,0.275c0.012,0.089,0.022,0.182,0.043,0.273l1.316,7.265v0.018c0,0.414-0.192,0.782-0.569,1.095
			c-0.364,0.304-0.734,0.455-1.091,0.455H52.61L52.105,27.861z"/>
		<path fill="#041E42" d="M64.736,28.262c-0.733,0-1.378-0.168-1.914-0.498c-0.526-0.325-0.968-0.754-1.304-1.274
			c-0.329-0.513-0.579-1.094-0.739-1.726c-0.16-0.625-0.239-1.256-0.239-1.877c0-0.636,0.083-1.339,0.252-2.089
			c0.165-0.747,0.405-1.505,0.711-2.252c0.304-0.748,0.682-1.476,1.125-2.166c0.444-0.693,0.955-1.315,1.518-1.849
			c0.567-0.538,1.188-0.972,1.847-1.291c0.667-0.325,1.393-0.489,2.16-0.489c0.734,0,1.378,0.168,1.914,0.498
			c0.527,0.327,0.968,0.75,1.302,1.259c0.331,0.502,0.582,1.079,0.742,1.713c0.159,0.629,0.24,1.26,0.24,1.875
			c0,0.971-0.184,2.058-0.549,3.231c-0.363,1.171-0.882,2.278-1.542,3.293c-0.661,1.018-1.468,1.886-2.397,2.58
			C66.918,27.905,65.866,28.262,64.736,28.262z M68.151,13.152c-0.706,0-1.375,0.151-1.984,0.448
			c-0.621,0.302-1.208,0.713-1.744,1.222c-0.54,0.512-1.031,1.109-1.459,1.775c-0.431,0.669-0.798,1.376-1.091,2.101
			c-0.298,0.727-0.529,1.463-0.693,2.188c-0.158,0.722-0.242,1.394-0.242,2.001c0,0.588,0.075,1.186,0.227,1.779
			c0.149,0.589,0.382,1.13,0.688,1.607c0.306,0.47,0.7,0.856,1.177,1.151c0.472,0.289,1.045,0.437,1.705,0.437
			c1.039,0,2.013-0.332,2.887-0.982c0.89-0.667,1.665-1.5,2.302-2.479c0.639-0.984,1.14-2.059,1.494-3.195
			c0.352-1.135,0.53-2.181,0.53-3.111c0-0.583-0.077-1.181-0.228-1.777c-0.15-0.59-0.383-1.125-0.688-1.59
			c-0.304-0.46-0.7-0.843-1.179-1.138C69.382,13.301,68.81,13.152,68.151,13.152z M64.736,25.969c-0.401,0-0.733-0.117-0.986-0.346
			c-0.237-0.214-0.427-0.484-0.564-0.805c-0.135-0.309-0.229-0.637-0.279-0.975c-0.052-0.331-0.075-0.645-0.075-0.926
			c0-0.646,0.132-1.421,0.39-2.306c0.257-0.881,0.624-1.741,1.093-2.558c0.471-0.819,1.033-1.527,1.673-2.106
			c0.662-0.601,1.4-0.905,2.193-0.905c0.403,0,0.735,0.117,0.989,0.346c0.239,0.217,0.424,0.489,0.552,0.81
			c0.122,0.31,0.21,0.641,0.263,0.986c0.052,0.349,0.074,0.647,0.074,0.91c0,0.643-0.131,1.423-0.39,2.319
			c-0.261,0.896-0.623,1.762-1.077,2.572c-0.457,0.818-1.016,1.523-1.659,2.093C66.268,25.671,65.529,25.969,64.736,25.969z
			 M68.18,15.445c-0.69,0-1.339,0.27-1.926,0.8c-0.606,0.551-1.143,1.227-1.591,2.009c-0.452,0.788-0.808,1.619-1.055,2.47
			c-0.248,0.85-0.375,1.586-0.375,2.192c0,0.265,0.024,0.556,0.071,0.867c0.047,0.303,0.13,0.597,0.251,0.875
			c0.114,0.269,0.27,0.491,0.465,0.667c0.179,0.163,0.414,0.243,0.716,0.243c0.692,0,1.34-0.266,1.928-0.787
			c0.608-0.543,1.14-1.212,1.576-1.993c0.439-0.783,0.791-1.619,1.041-2.484c0.249-0.86,0.374-1.603,0.374-2.207
			c0-0.241-0.024-0.527-0.072-0.852c-0.047-0.314-0.126-0.616-0.238-0.897c-0.104-0.263-0.256-0.485-0.448-0.66
			C68.719,15.525,68.482,15.445,68.18,15.445z"/>
		<path fill="#041E42" d="M76.755,28.262h-5.696l4.132-15.512H78l-3.415,12.817h2.888L76.755,28.262z M71.58,27.861h4.867
			l0.505-1.892h-2.889l3.413-12.817h-1.978L71.58,27.861z"/>
		<path fill="#041E42" d="M44.314,28.277h-2.806l0.671-2.568l-3.786-0.001l-0.051,0.537l0.008,0.721l0,0c0,0,0.026,0.592,0.026,1.11
			v0.2h-2.975l-0.013-0.187c-0.053-0.708-0.016-1.258,0.035-1.854c0.015-0.172,0.033-0.346,0.054-0.528h-5.162l0.718-2.693h5.028
			c0.19-0.573,0.421-1.138,0.707-1.721c0.769-1.575,1.775-2.982,2.991-4.182c0.47-0.472,1.052-0.966,1.729-1.467
			c0.672-0.499,1.4-0.971,2.165-1.404c0.765-0.432,1.545-0.792,2.322-1.067c0.786-0.28,1.53-0.422,2.211-0.422h0.261L44.314,28.277z
			 M42.027,27.876h1.978l3.918-14.715c-0.564,0.032-1.173,0.163-1.814,0.391c-0.754,0.269-1.514,0.618-2.258,1.039
			c-0.75,0.424-1.465,0.888-2.124,1.377c-0.66,0.489-1.227,0.969-1.685,1.428c-1.185,1.168-2.165,2.539-2.913,4.074
			c-0.299,0.613-0.539,1.203-0.73,1.805l-0.045,0.141h-5.012l-0.503,1.889h5.096l-0.03,0.226c-0.034,0.263-0.062,0.502-0.082,0.737
			c-0.045,0.543-0.079,1.013-0.046,1.605h2.198c-0.005-0.452-0.025-0.895-0.026-0.9l-0.009-0.749l0.087-0.92l4.67,0.001
			L42.027,27.876z M43.202,23.417h-4.819l0.102-0.271c0.55-1.476,1.389-2.823,2.492-4.005c1.102-1.18,2.367-2.126,3.764-2.815
			l0.396-0.195L43.202,23.417z M38.963,23.014h3.93l1.625-6.124c-1.196,0.646-2.287,1.492-3.25,2.524
			C40.27,20.485,39.496,21.695,38.963,23.014z"/>
	</g>
	<g>
		<path fill="#FFC72C" d="M35.134,12.427c0.401,0.308,0.732,0.698,0.985,1.165l2.051-1.012c-0.451-0.867-1.066-1.574-1.829-2.104
			c-0.811-0.562-1.772-0.847-2.855-0.847c-1.246,0-2.42,0.337-3.492,1.003c-1.087,0.677-2.056,1.469-2.878,2.356
			c-0.711,0.78-1.369,1.643-1.955,2.566c-0.586,0.923-1.088,1.905-1.492,2.916c-0.406,1.015-0.723,2.071-0.94,3.134
			c-0.218,1.065-0.33,2.136-0.33,3.182c0,0.886,0.105,1.788,0.312,2.685c0.205,0.89,0.538,1.706,0.991,2.43
			c0.446,0.715,1.035,1.304,1.75,1.75c0.705,0.441,1.569,0.665,2.568,0.665c1.114,0,2.19-0.277,3.196-0.825
			c0.957-0.521,1.817-1.141,2.559-1.848l-1.587-1.615c-0.519,0.478-1.12,0.925-1.79,1.332c-0.753,0.457-1.553,0.691-2.379,0.691
			c-0.679,0-1.248-0.188-1.689-0.559c-0.429-0.358-0.772-0.805-1.02-1.327c-0.243-0.516-0.415-1.086-0.508-1.692
			c-0.091-0.594-0.138-1.154-0.138-1.666c0-0.9,0.1-1.831,0.293-2.768s0.477-1.86,0.843-2.745c0.364-0.881,0.802-1.738,1.304-2.551
			c0.502-0.815,1.07-1.565,1.686-2.229c0.573-0.62,1.268-1.216,2.069-1.767c0.821-0.565,1.704-0.853,2.625-0.853
			C34.115,11.893,34.67,12.073,35.134,12.427z"/>
		<polygon fill="#FFC72C" points="48.301,25.969 51.715,13.152 49.736,13.152 45.818,27.861 50.685,27.861 51.189,25.969 		"/>
		<path fill="#FFC72C" d="M60.997,15.019c0.176,0.012,0.33,0.019,0.462,0.023l0.504-1.89h-2.919c-0.436,0-0.874,0.093-1.304,0.278
			c-0.433,0.185-0.82,0.438-1.15,0.753c-0.331,0.313-0.6,0.684-0.801,1.1c-0.202,0.41-0.301,0.85-0.301,1.305
			c0,0.099,0.004,0.188,0.011,0.275c0.012,0.089,0.022,0.182,0.043,0.273l1.316,7.265v0.018c0,0.414-0.192,0.782-0.569,1.095
			c-0.364,0.304-0.734,0.455-1.091,0.455H52.61l-0.507,1.893h3.096c0.438,0,0.877-0.094,1.305-0.277
			c0.433-0.183,0.816-0.44,1.145-0.763c0.33-0.321,0.601-0.696,0.802-1.113c0.197-0.41,0.299-0.848,0.299-1.301
			c0-0.087-0.005-0.177-0.012-0.276c-0.009-0.091-0.021-0.181-0.035-0.275l-1.312-7.24V16.48c0-0.326,0.096-0.592,0.287-0.796
			c0.173-0.185,0.396-0.334,0.667-0.443c0.259-0.104,0.552-0.173,0.872-0.204C59.838,14.976,60.466,14.984,60.997,15.019z"/>
		<path fill="#FFC72C" d="M69.924,24.401c0.64-0.984,1.14-2.06,1.494-3.195c0.353-1.135,0.53-2.181,0.53-3.111
			c0-0.583-0.077-1.181-0.228-1.776c-0.15-0.59-0.382-1.125-0.687-1.59c-0.305-0.461-0.7-0.843-1.179-1.138
			c-0.474-0.291-1.046-0.439-1.704-0.439c-0.706,0-1.375,0.151-1.984,0.448c-0.621,0.302-1.208,0.713-1.744,1.222
			c-0.54,0.512-1.031,1.109-1.459,1.775c-0.431,0.669-0.798,1.376-1.091,2.101c-0.298,0.727-0.529,1.463-0.693,2.188
			c-0.158,0.722-0.242,1.395-0.242,2.001c0,0.589,0.075,1.186,0.227,1.779c0.149,0.589,0.382,1.13,0.688,1.607
			c0.306,0.47,0.7,0.856,1.177,1.151c0.472,0.288,1.045,0.438,1.705,0.438c1.039,0,2.013-0.333,2.887-0.983
			C68.514,26.213,69.288,25.38,69.924,24.401z M66.93,25.081c-0.662,0.59-1.4,0.889-2.193,0.889c-0.401,0-0.733-0.117-0.986-0.346
			c-0.237-0.214-0.427-0.484-0.564-0.805c-0.135-0.309-0.229-0.637-0.279-0.975c-0.052-0.331-0.075-0.645-0.075-0.926
			c0-0.646,0.132-1.421,0.39-2.306c0.257-0.881,0.624-1.741,1.093-2.558c0.471-0.819,1.033-1.527,1.673-2.106
			c0.662-0.601,1.4-0.905,2.193-0.905c0.403,0,0.735,0.117,0.989,0.346c0.239,0.217,0.424,0.489,0.552,0.81
			c0.122,0.31,0.21,0.641,0.263,0.986c0.052,0.349,0.074,0.647,0.074,0.91c0,0.643-0.131,1.423-0.39,2.319
			c-0.261,0.896-0.623,1.762-1.077,2.572C68.131,23.804,67.573,24.51,66.93,25.081z"/>
		<polygon fill="#FFC72C" points="74.064,25.969 77.477,13.152 75.499,13.152 71.58,27.861 76.447,27.861 76.952,25.969 		"/>
		<path fill="#FFC72C" d="M46.109,13.551c-0.754,0.269-1.514,0.618-2.258,1.039c-0.75,0.425-1.465,0.888-2.124,1.377
			c-0.66,0.49-1.227,0.97-1.685,1.429c-1.185,1.168-2.165,2.54-2.913,4.074c-0.299,0.613-0.539,1.204-0.73,1.806l-0.045,0.14h-5.012
			l-0.503,1.89h5.096l-0.03,0.226c-0.034,0.262-0.062,0.502-0.082,0.737c-0.045,0.542-0.079,1.013-0.046,1.604h2.198
			c-0.005-0.452-0.025-0.895-0.026-0.899l-0.009-0.749l0.087-0.921l4.67,0.001l-0.671,2.567h1.978l3.919-14.716
			C47.36,13.192,46.75,13.323,46.109,13.551z M43.202,23.417h-4.819l0.102-0.271c0.55-1.476,1.389-2.823,2.492-4.005
			c1.102-1.18,2.367-2.126,3.764-2.815l0.396-0.195L43.202,23.417z"/>
	</g>
</g>
</svg>
