<?xml version="1.0" encoding="utf-8"?>
<!-- Generator: Adobe Illustrator 16.0.0, SVG Export Plug-In . SVG Version: 6.00 Build 0)  -->
<!DOCTYPE svg PUBLIC "-//W3C//DTD SVG 1.1//EN" "http://www.w3.org/Graphics/SVG/1.1/DTD/svg11.dtd">
<svg version="1.1" id="Layer_1" xmlns="http://www.w3.org/2000/svg" xmlns:xlink="http://www.w3.org/1999/xlink" x="0px" y="0px"
	 width="100px" height="100px" viewBox="0 0 100 100" enable-background="new 0 0 100 100" xml:space="preserve">
<path d="M50,22c-15.464,0-28,12.536-28,28c0,15.465,12.536,28,28,28c15.464,0,28-12.538,28-28C78.001,34.536,65.464,22,50,22z
	 M57.202,24.59c0.818,0.228,1.636,0.494,2.452,0.793v17.978c-0.204-0.134-0.464-0.264-0.688-0.38
	c-0.492-0.255-1.152-0.477-1.765-0.641V24.59L57.202,24.59z M52.914,23.742c1.021,0.094,1.836,0.226,2.451,0.393v17.927
	c-0.615-0.046-1.43,0.021-2.451,0.243V23.742z M48.828,23.591c0.205-0.017,0.768-0.026,1.16-0.026c0.367,0,0.678,0.008,1.086,0.022
	v19.655c-0.408,0.332-0.806,0.741-1.123,1.236c-0.314-0.504-0.715-0.917-1.123-1.25V23.591L48.828,23.591z M44.334,24.151
	c0.817-0.169,1.634-0.304,2.452-0.399v18.515c-0.818-0.202-1.43-0.255-2.452-0.197V24.151z M40.045,25.469
	c0.817-0.307,1.634-0.58,2.451-0.815v17.75c-0.408,0.155-1.097,0.352-1.527,0.575c-0.314,0.164-0.721,0.348-0.923,0.546V25.469z
	 M49.236,76.294c-2.248,0-5.319-2.347-7.16-4.723c-1.759-2.271-2.595-6.485-2.571-8.531c2.121,1.658,2.287,1.4,3.731,2.499
	c1.733,1.316,2.764,2.207,3.985,3.947c0.77,1.097,1.809,2.742,2.014,5.23C49.236,74.717,49.236,75.945,49.236,76.294z
	 M49.236,68.769c-2.248-3.486-5.686-5.444-7.293-7.067c-1.207-1.221-2.73-4.718-2.438-8.094c1.949,1.805,2.858,2.242,4.636,3.486
	c1.83,1.281,2.97,2.779,3.995,4.461c0.383,0.63,0.896,1.934,1.1,3.486C49.236,65.037,49.236,68.263,49.236,68.769z M49.988,60.523
	c-2.475-3.576-5.849-5.647-7.551-7.259c-3.173-2.999-3.281-6.874-0.318-8.562c2.961-1.538,7.003-0.478,7.881,3.199h0.001
	c0.876-3.677,4.905-4.737,7.866-3.199c2.963,1.688,2.85,5.56-0.322,8.561C55.841,54.874,52.463,56.947,49.988,60.523z
	 M57.965,71.571c-1.84,2.376-4.848,4.724-7.299,4.724c0-0.349,0-1.578,0-1.578c0.408-2.485,1.383-4.131,2.153-5.229
	c1.222-1.74,2.323-2.632,4.056-3.949c1.445-1.096,1.681-0.841,3.801-2.498C60.7,65.086,59.723,69.302,57.965,71.571z M58.098,61.701
	c-1.606,1.623-4.98,3.581-7.432,7.067c0-0.505,0-3.729,0-3.729c0.206-1.551,0.854-2.855,1.239-3.485
	c1.023-1.682,2.235-3.183,4.064-4.461c1.778-1.244,2.756-1.682,4.706-3.485C60.968,56.983,59.306,60.48,58.098,61.701z"/>
</svg>
