<?xml version="1.0" encoding="utf-8"?>
<!-- Generator: Adobe Illustrator 16.0.0, SVG Export Plug-In . SVG Version: 6.00 Build 0)  -->
<!DOCTYPE svg PUBLIC "-//W3C//DTD SVG 1.1//EN" "http://www.w3.org/Graphics/SVG/1.1/DTD/svg11.dtd">
<svg version="1.1" id="Layer_1" xmlns="http://www.w3.org/2000/svg" xmlns:xlink="http://www.w3.org/1999/xlink" x="0px" y="0px"
	 width="40px" height="40px" viewBox="30 30 40 40" enable-background="new 30 30 40 40" xml:space="preserve">
<path d="M50,38c-6.627,0-12,5.373-12,12c0,6.628,5.373,12,12,12c6.627,0,12-5.373,12-12C62,43.373,56.627,38,50,38z M53.087,39.11
	c0.351,0.098,0.701,0.212,1.051,0.34v7.705c-0.088-0.058-0.199-0.113-0.295-0.163c-0.211-0.109-0.494-0.204-0.756-0.275V39.11
	L53.087,39.11z M51.249,38.747c0.438,0.04,0.787,0.097,1.051,0.168v7.683c-0.264-0.02-0.613,0.009-1.051,0.104V38.747z
	 M49.498,38.682c0.088-0.007,0.329-0.011,0.497-0.011c0.157,0,0.291,0.003,0.466,0.009v8.424c-0.175,0.142-0.345,0.317-0.481,0.53
	c-0.135-0.216-0.307-0.393-0.481-0.536V38.682L49.498,38.682z M47.572,38.922c0.35-0.073,0.7-0.13,1.051-0.171v7.935
	c-0.351-0.087-0.613-0.109-1.051-0.084V38.922z M45.733,39.487c0.35-0.131,0.7-0.249,1.05-0.35v7.607
	c-0.175,0.066-0.47,0.151-0.654,0.247c-0.135,0.07-0.309,0.149-0.396,0.234V39.487z M49.672,61.269c-0.963,0-2.28-1.006-3.068-2.023
	c-0.754-0.974-1.112-2.779-1.102-3.656c0.909,0.71,0.98,0.6,1.599,1.07c0.743,0.564,1.185,0.946,1.708,1.692
	c0.33,0.47,0.775,1.175,0.863,2.241C49.672,60.593,49.672,61.119,49.672,61.269z M49.672,58.044
	c-0.963-1.494-2.437-2.334-3.125-3.029c-0.517-0.523-1.17-2.021-1.045-3.469c0.835,0.773,1.225,0.961,1.987,1.494
	c0.784,0.549,1.273,1.191,1.712,1.912c0.164,0.27,0.384,0.828,0.471,1.494C49.672,56.444,49.672,57.827,49.672,58.044z
	 M49.995,54.51c-1.061-1.532-2.506-2.42-3.236-3.11c-1.359-1.286-1.406-2.946-0.136-3.669c1.269-0.659,3.001-0.205,3.378,1.371h0
	c0.375-1.576,2.102-2.03,3.372-1.371c1.27,0.723,1.221,2.383-0.139,3.668C52.503,52.089,51.056,52.978,49.995,54.51z M53.413,59.245
	c-0.788,1.018-2.077,2.024-3.127,2.024c0-0.149,0-0.677,0-0.677c0.175-1.065,0.592-1.771,0.922-2.24
	c0.523-0.746,0.996-1.128,1.738-1.693c0.619-0.469,0.721-0.36,1.629-1.07C54.586,56.466,54.167,58.272,53.413,59.245z
	 M53.471,55.015c-0.688,0.695-2.135,1.535-3.185,3.029c0-0.217,0-1.599,0-1.599c0.088-0.665,0.366-1.224,0.531-1.494
	c0.438-0.721,0.958-1.363,1.742-1.911c0.762-0.533,1.181-0.721,2.017-1.494C54.7,52.993,53.988,54.491,53.471,55.015z"/>
</svg>
