<?xml version="1.0" encoding="utf-8"?>
<!-- Generator: Adobe Illustrator 16.0.0, SVG Export Plug-In . SVG Version: 6.00 Build 0)  -->
<!DOCTYPE svg PUBLIC "-//W3C//DTD SVG 1.1//EN" "http://www.w3.org/Graphics/SVG/1.1/DTD/svg11.dtd">
<svg version="1.1" id="Layer_1" xmlns="http://www.w3.org/2000/svg" xmlns:xlink="http://www.w3.org/1999/xlink" x="0px" y="0px"
	 width="100px" height="100px" viewBox="0 0 100 100" enable-background="new 0 0 100 100" xml:space="preserve">
<g>
	<path d="M57.5,50.833h-0.004c0.001,0,0.004-0.441,0.004-0.491c0-4.143-3.357-7.671-7.5-7.671s-7.5,3.613-7.5,7.755
		c0,0.051,0.003,0.407,0.004,0.407H42.5v28.222C44.897,79.671,47.411,80,50,80c2.59,0,5.103-0.329,7.5-0.945V50.833z"/>
	<path d="M50,20c-16.568,0-30,13.432-30,30c0,11.104,6.032,20.799,15,25.986V50.833h0.004c0,0-0.004-0.441-0.004-0.491
		c0-8.285,6.716-15.171,15-15.171s15,6.972,15,15.255c0,0.051-0.003,0.407-0.004,0.407H65v25.153C73.967,70.799,80,61.104,80,50
		C80,33.432,66.568,20,50,20z"/>
</g>
</svg>
