<?xml version="1.0" encoding="utf-8"?>
<!-- Generator: Adobe Illustrator 16.0.0, SVG Export Plug-In . SVG Version: 6.00 Build 0)  -->
<!DOCTYPE svg PUBLIC "-//W3C//DTD SVG 1.1//EN" "http://www.w3.org/Graphics/SVG/1.1/DTD/svg11.dtd">
<svg version="1.1" id="Layer_1" xmlns="http://www.w3.org/2000/svg" xmlns:xlink="http://www.w3.org/1999/xlink" x="0px" y="0px"
	 width="40px" height="40px" viewBox="30 30 40 40" enable-background="new 30 30 40 40" xml:space="preserve">
<g>
	<path d="M53,50.333h-0.002c0.001,0,0.002-0.177,0.002-0.197c0-1.657-1.343-3.068-3-3.068s-3,1.445-3,3.102
		c0,0.021,0.001,0.163,0.001,0.163H47v11.289C47.959,61.868,48.964,62,50,62c1.036,0,2.042-0.132,3-0.378V50.333z"/>
	<path d="M50,38c-6.627,0-12,5.373-12,12c0,4.441,2.413,8.319,6,10.395V50.333h0.001c0,0-0.001-0.177-0.001-0.197
		c0-3.314,2.686-6.068,6-6.068c3.313,0,6,2.789,6,6.102c0,0.021-0.001,0.163-0.002,0.163H56v10.061c3.587-2.075,6-5.953,6-10.395
		C62,43.373,56.628,38,50,38z"/>
</g>
</svg>
