<?xml version="1.0" encoding="utf-8"?>
<!-- Generator: Adobe Illustrator 16.0.0, SVG Export Plug-In . SVG Version: 6.00 Build 0)  -->
<!DOCTYPE svg PUBLIC "-//W3C//DTD SVG 1.1//EN" "http://www.w3.org/Graphics/SVG/1.1/DTD/svg11.dtd">
<svg version="1.1" id="Layer_1" xmlns="http://www.w3.org/2000/svg" xmlns:xlink="http://www.w3.org/1999/xlink" x="0px" y="0px"
	 width="120px" height="60px" viewBox="-10 20 120 60" enable-background="new -10 20 120 60" xml:space="preserve">
<g>
	<path d="M26.19,45h-7.587h-0.822h-2.818l-0.441,1.645h2.818l-0.912,3.404l-2.558,9.544l-0.154,0.579l-0.44,1.644l-0.034,0.127
		l-0.847,3.161c-0.299,1.115-1.597,2.31-2.928,2.31c-1.487,0-1.924-0.999-1.51-2.545c0.522-1.947,2.208-3.053,4.257-3.053
		c0.004,0,0.09,0,0.24,0l0.441-1.644H12.57c-3.121,0-5.715,2.161-6.402,4.727c-0.606,2.257,0.463,4.255,2.762,4.255
		c2.24,0,4.568-2.049,5.106-4.043l0,0l0.793-2.962l0.089-0.333l0.441-1.644l0.099-0.372l3.525-13.156h6.766
		c3.735,0,5.952,3.028,4.951,6.763c-1.001,3.738-4.841,6.765-8.578,6.765h-5.942l-0.44,1.644c2.662,0,5.943,0,5.943,0
		c4.645,0,9.417-3.766,10.662-8.408C33.589,48.764,30.833,45,26.19,45z"/>
	<polygon points="39.474,31.965 35.012,31.965 34.571,33.61 39.034,33.61 35.856,45.47 37.5,45.47 40.678,33.61 45.14,33.61 
		45.58,31.965 41.118,31.965 	"/>
	<path d="M49.184,39.496c-0.569-0.602-1.812-0.573-2.798-0.015l2.013-7.515h-1.41L43.371,45.47h1.409l1.204-4.491
		c0.591-0.598,1.443-0.783,1.886-0.381c0.292,0.265,0.354,0.783,0.14,1.584l-0.881,3.288h1.409l0.913-3.406
		C49.752,40.934,49.768,40.112,49.184,39.496z"/>
	<path d="M37.331,52.398c-0.594,0-1.442,0.314-1.943,0.953l0.256-0.953h-1.409l-1.699,6.339h1.41l0.915-3.413
		c1.036-1.713,2.487-1.924,3.096-1.093c0.353-0.278,1.083-0.854,1.083-0.854C38.599,52.776,38.095,52.398,37.331,52.398z"/>
	<path d="M43.863,52.398l-0.032,0.118l-0.369,1.379l-0.124,0.459l-0.679,2.534c-1.604,1.057-2.538,0.236-2.171-1.135
		c0.353-1.317,1.349-2.1,2.337-2.114l0.337-1.256c-0.163-0.014-0.319-0.011-0.474,0.015c-1.705,0.279-3.002,1.525-3.502,3.391
		c-0.424,1.585,0.247,2.948,1.524,2.948c0.523,0,1.107-0.204,1.59-0.51l-0.137,0.51h1.408l1.7-6.339H43.863z"/>
	<path d="M49.849,60.295l2.118-7.896h-1.411l-0.033,0.118l-0.368,1.379L50,54.473l-0.648,2.416
		c-1.604,1.057-2.537,0.236-2.171-1.135c0.354-1.317,1.35-2.1,2.338-2.114l0.336-1.256c-0.161-0.014-0.318-0.011-0.473,0.015
		c-1.705,0.279-3.002,1.525-3.502,3.391c-0.425,1.585,0.247,2.948,1.523,2.948c0.523,0,1.106-0.204,1.59-0.51l-0.555,2.067h-1.262
		c-3.122,0-5.568,2.044-6.255,4.608c-0.606,2.26,0.378,4.141,2.678,4.141c2.24,0,4.421-1.938,4.958-3.933l0.913-3.408
		c9.809,0,44.151,0,44.151,0L94,60.295H49.849z M47.15,65.109c-0.299,1.116-1.746,2.427-3.076,2.427
		c-1.489,0-2.011-1.115-1.597-2.662c0.523-1.95,2.357-3.171,4.407-3.171c0.007,0,0.426,0,1.179,0L47.15,65.109z"/>
	<path d="M54.792,42.974h1.207c0.101-0.228,0.186-0.463,0.25-0.704c0.485-1.813-0.317-3.288-1.79-3.288
		c-1.138,0-2.345,0.879-3.061,2.113h1.275c0.411-0.518,0.945-0.856,1.448-0.856c0.705,0,1.119,0.668,1.037,1.56h-2.042h-0.869
		h-1.188c-0.062,0.153-0.111,0.311-0.152,0.47c-0.487,1.814,0.315,3.289,1.789,3.289c1.063,0,2.191-0.77,2.917-1.879h-1.341
		C53.9,44.061,53.455,44.3,53.034,44.3c-0.643,0-1.043-0.553-1.048-1.326h2.344H54.792z"/>
</g>
</svg>
