<?xml version="1.0" encoding="utf-8"?>
<!-- Generator: Adobe Illustrator 16.0.0, SVG Export Plug-In . SVG Version: 6.00 Build 0)  -->
<!DOCTYPE svg PUBLIC "-//W3C//DTD SVG 1.1//EN" "http://www.w3.org/Graphics/SVG/1.1/DTD/svg11.dtd">
<svg version="1.1" id="Layer_1" xmlns="http://www.w3.org/2000/svg" xmlns:xlink="http://www.w3.org/1999/xlink" x="0px" y="0px"
	 width="120px" height="60px" viewBox="0 0 120 60" enable-background="new 0 0 120 60" xml:space="preserve">
<g>
	<path d="M38.354,24.945h-6.896H30.71h-2.562l-0.4,1.495h2.562l-0.83,3.096l-2.326,8.678l-0.141,0.525l-0.4,1.494l-0.031,0.116
		l-0.77,2.873c-0.271,1.014-1.452,2.1-2.662,2.1c-1.353,0-1.75-0.908-1.373-2.313c0.475-1.771,2.007-2.775,3.871-2.775
		c0.004,0,0.082,0,0.218,0l0.4-1.494h-0.293c-2.838,0-5.197,1.965-5.822,4.296c-0.55,2.056,0.422,3.87,2.513,3.87
		c2.035,0,4.152-1.863,4.641-3.677l0,0l0.722-2.692l0.081-0.303l0.4-1.494l0.091-0.338l3.205-11.961h6.149
		c3.396,0,5.412,2.753,4.502,6.149c-0.91,3.396-4.401,6.149-7.797,6.149h-5.402l-0.401,1.494c2.419,0,5.402,0,5.402,0
		c4.222,0,8.561-3.422,9.692-7.644C45.081,28.367,42.575,24.945,38.354,24.945z"/>
	<polygon points="50.431,13.096 46.375,13.096 45.974,14.59 50.03,14.59 47.142,25.372 48.636,25.372 51.525,14.59 55.581,14.59 
		55.982,13.096 51.925,13.096 	"/>
	<path d="M59.258,19.941c-0.518-0.547-1.648-0.521-2.545-0.013l1.831-6.832h-1.281l-3.29,12.276h1.281l1.094-4.083
		c0.537-0.542,1.312-0.711,1.714-0.347c0.267,0.241,0.322,0.714,0.128,1.441l-0.801,2.989h1.28l0.83-3.096
		C59.775,21.249,59.788,20.501,59.258,19.941z"/>
	<path d="M48.483,31.67c-0.541,0-1.312,0.287-1.767,0.867l0.232-0.867h-1.281l-1.545,5.765h1.281l0.831-3.103
		c0.943-1.559,2.262-1.75,2.815-0.994c0.322-0.254,0.986-0.777,0.986-0.777C49.635,32.014,49.177,31.67,48.483,31.67z"/>
	<path d="M54.421,31.67l-0.029,0.106l-0.336,1.255l-0.112,0.418l-0.617,2.304c-1.458,0.961-2.308,0.214-1.974-1.032
		c0.321-1.197,1.227-1.908,2.125-1.922l0.306-1.141c-0.147-0.014-0.289-0.012-0.43,0.012c-1.549,0.254-2.729,1.388-3.183,3.082
		c-0.386,1.441,0.224,2.683,1.385,2.683c0.476,0,1.006-0.187,1.445-0.464l-0.125,0.464h1.281l1.544-5.765H54.421z"/>
	<path d="M64.355,23.104h1.098c0.092-0.207,0.169-0.421,0.228-0.641c0.442-1.648-0.288-2.989-1.627-2.989
		c-1.034,0-2.132,0.799-2.783,1.921h1.161c0.372-0.47,0.858-0.778,1.315-0.778c0.642,0,1.018,0.606,0.942,1.418h-1.856h-0.789h-1.08
		c-0.054,0.14-0.101,0.282-0.14,0.427c-0.441,1.648,0.288,2.989,1.627,2.989c0.967,0,1.991-0.699,2.652-1.708h-1.219
		c-0.34,0.347-0.743,0.565-1.127,0.565c-0.584,0-0.947-0.503-0.951-1.205h2.128H64.355z"/>
	<path d="M59.862,38.85l1.924-7.18h-1.281l-0.028,0.106l-0.336,1.255L60,33.557l-0.589,2.196c-1.458,0.961-2.308,0.214-1.974-1.032
		c0.32-1.197,1.227-1.908,2.125-1.922l0.306-1.141c-0.147-0.014-0.289-0.012-0.431,0.012c-1.549,0.254-2.729,1.388-3.183,3.082
		c-0.386,1.441,0.224,2.683,1.385,2.683c0.477,0,1.007-0.187,1.445-0.464l-0.408,1.524l-0.095,0.354l-0.344,1.28l-0.534,1.995
		l-0.295,1.101c-0.272,1.015-1.588,2.206-2.797,2.206c-1.353,0-1.828-1.014-1.451-2.419c0.475-1.771,2.142-2.883,4.006-2.883
		c0.003,0,0.153,0,0.431,0l0.344-1.28h-0.508c-2.837,0-5.061,1.858-5.686,4.189c-0.551,2.055,0.344,3.763,2.434,3.763
		c2.037,0,4.02-1.76,4.507-3.574l0.83-3.098c8.917,0,40.137,0,40.137,0L100,38.85H59.862z"/>
</g>
</svg>
